<svg width="1000" height="481" version="1.1" xmlns="http://www.w3.org/2000/svg" desc="Created with imagetracer.js version 1.2.6" ><path fill="rgb(1,138,233)" stroke="rgb(1,138,233)" stroke-width="1" opacity="0.00392156862745098" d="M 699.5 12 L 698.5 14 L 699.5 12 Z " /><path fill="rgb(1,138,233)" stroke="rgb(1,138,233)" stroke-width="1" opacity="0.00392156862745098" d="M 661.5 124 L 665 126.5 L 662.5 125 L 661.5 124 Z " /><path fill="rgb(1,138,233)" stroke="rgb(1,138,233)" stroke-width="1" opacity="0.00392156862745098" d="M 666.5 138 L 667 154.5 L 666 154.5 L 666.5 138 Z " /><path fill="rgb(1,138,233)" stroke="rgb(1,138,233)" stroke-width="1" opacity="0.00392156862745098" d="M 593.5 147 L 592.5 149 L 593.5 147 Z " /><path fill="rgb(1,138,233)" stroke="rgb(1,138,233)" stroke-width="1" opacity="0.00392156862745098" d="M 860.5 149 L 861.5 151 L 860.5 149 Z " /><path fill="rgb(1,138,233)" stroke="rgb(1,138,233)" stroke-width="1" opacity="0.00392156862745098" d="M 588.5 150 L 587.5 152 L 588.5 150 Z " /><path fill="rgb(1,138,233)" stroke="rgb(1,138,233)" stroke-width="1" opacity="0.00392156862745098" d="M 808.5 151 L 807.5 153 L 808.5 151 Z " /><path fill="rgb(1,138,233)" stroke="rgb(1,138,233)" stroke-width="1" opacity="0.00392156862745098" d="M 863.5 151 L 868.5 157 L 863.5 151 Z " /><path fill="rgb(1,138,233)" stroke="rgb(1,138,233)" stroke-width="1" opacity="0.00392156862745098" d="M 585.5 152 L 584.5 154 L 585.5 152 Z " /><path fill="rgb(1,138,233)" stroke="rgb(1,138,233)" stroke-width="1" opacity="0.00392156862745098" d="M 805.5 153 L 798.5 161 L 805.5 153 Z " /><path fill="rgb(1,138,233)" stroke="rgb(1,138,233)" stroke-width="1" opacity="0.00392156862745098" d="M 582.5 154 L 581.5 156 L 582.5 154 Z " /><path fill="rgb(1,138,233)" stroke="rgb(1,138,233)" stroke-width="1" opacity="0.00392156862745098" d="M 578.5 157 L 577.5 159 L 578.5 157 Z " /><path fill="rgb(1,138,233)" stroke="rgb(1,138,233)" stroke-width="1" opacity="0.00392156862745098" d="M 869.5 158 L 870.5 160 L 869.5 158 Z " /><path fill="rgb(1,138,233)" stroke="rgb(1,138,233)" stroke-width="1" opacity="0.00392156862745098" d="M 575.5 159 L 571.5 164 L 575.5 159 Z " /><path fill="rgb(1,138,233)" stroke="rgb(1,138,233)" stroke-width="1" opacity="0.00392156862745098" d="M 797.5 162 L 796.5 164 L 797.5 162 Z " /><path fill="rgb(1,138,233)" stroke="rgb(1,138,233)" stroke-width="1" opacity="0.00392156862745098" d="M 90.5 164 L 100 164.5 Q 71 169.5 33.5 166 L 33.5 165 L 89.5 165 L 90.5 164 Z " /><path fill="rgb(1,138,233)" stroke="rgb(1,138,233)" stroke-width="1" opacity="0.00392156862745098" d="M 133.5 164 L 154 164.5 L 133.5 165 L 133.5 164 Z " /><path fill="rgb(1,138,233)" stroke="rgb(1,138,233)" stroke-width="1" opacity="0.00392156862745098" d="M 23.5 165 L 29 165.5 L 23.5 166 L 23.5 165 Z " /><path fill="rgb(1,138,233)" stroke="rgb(1,138,233)" stroke-width="1" opacity="0.00392156862745098" d="M 162.5 165 L 165 165.5 L 162.5 166 L 162.5 165 Z " /><path fill="rgb(1,138,233)" stroke="rgb(1,138,233)" stroke-width="1" opacity="0.00392156862745098" d="M 309.5 165 L 409 165.5 L 309.5 166 L 309.5 165 Z " /><path fill="rgb(1,138,233)" stroke="rgb(1,138,233)" stroke-width="1" opacity="0.00392156862745098" d="M 459.5 165 L 464 165.5 L 459.5 166 L 459.5 165 Z " /><path fill="rgb(1,138,233)" stroke="rgb(1,138,233)" stroke-width="1" opacity="0.00392156862745098" d="M 568.5 165 L 556.5 178 L 568.5 165 Z " /><path fill="rgb(1,138,233)" stroke="rgb(1,138,233)" stroke-width="1" opacity="0.00392156862745098" d="M 19.5 166 L 21 166.5 L 18.5 168 L 19.5 166 Z " /><path fill="rgb(1,138,233)" stroke="rgb(1,138,233)" stroke-width="1" opacity="0.00392156862745098" d="M 292.5 166 L 291.5 168 L 292.5 166 Z " /><path fill="rgb(1,138,233)" stroke="rgb(1,138,233)" stroke-width="1" opacity="0.00392156862745098" d="M 289.5 169 L 288.5 171 L 289.5 169 Z " /><path fill="rgb(1,138,233)" stroke="rgb(1,138,233)" stroke-width="1" opacity="0.00392156862745098" d="M 470.5 169 L 471.5 171 L 470.5 169 Z " /><path fill="rgb(1,138,233)" stroke="rgb(1,138,233)" stroke-width="1" opacity="0.00392156862745098" d="M 873.5 170 L 874 173.5 L 873 173.5 L 873.5 170 Z " /><path fill="rgb(1,138,233)" stroke="rgb(1,138,233)" stroke-width="1" opacity="0.00392156862745098" d="M 946.5 175 L 951 175.5 L 946.5 176 L 946.5 175 Z " /><path fill="rgb(1,138,233)" stroke="rgb(1,138,233)" stroke-width="1" opacity="0.00392156862745098" d="M 199.5 176 L 200.5 178 L 199.5 176 Z " /><path fill="rgb(1,138,233)" stroke="rgb(1,138,233)" stroke-width="1" opacity="0.00392156862745098" d="M 792.5 176 L 793 178.5 L 792 178.5 L 792.5 176 Z " /><path fill="rgb(1,138,233)" stroke="rgb(1,138,233)" stroke-width="1" opacity="0.00392156862745098" d="M 14.5 177 L 15 186.5 L 14 186.5 L 14.5 177 Z " /><path fill="rgb(1,138,233)" stroke="rgb(1,138,233)" stroke-width="1" opacity="0.00392156862745098" d="M 286.5 177 L 287 179.5 L 286 179.5 L 286.5 177 Z " /><path fill="rgb(1,138,233)" stroke="rgb(1,138,233)" stroke-width="1" opacity="0.00392156862745098" d="M 949.5 177 L 947.5 180 L 949.5 177 Z " /><path fill="rgb(1,138,233)" stroke="rgb(1,138,233)" stroke-width="1" opacity="0.00392156862745098" d="M 204.5 179 L 205.5 181 L 204.5 179 Z " /><path fill="rgb(1,138,233)" stroke="rgb(1,138,233)" stroke-width="1" opacity="0.00392156862745098" d="M 554.5 180 L 551.5 184 L 554.5 180 Z " /><path fill="rgb(1,138,233)" stroke="rgb(1,138,233)" stroke-width="1" opacity="0.00392156862745098" d="M 207.5 181 L 209.5 184 L 207.5 181 Z " /><path fill="rgb(1,138,233)" stroke="rgb(1,138,233)" stroke-width="1" opacity="0.00392156862745098" d="M 946.5 181 L 944.5 184 L 946.5 181 Z " /><path fill="rgb(1,138,233)" stroke="rgb(1,138,233)" stroke-width="1" opacity="0.00392156862745098" d="M 665.5 184 L 660.5 190 L 665.5 184 Z " /><path fill="rgb(1,138,233)" stroke="rgb(1,138,233)" stroke-width="1" opacity="0.00392156862745098" d="M 212.5 185 L 221.5 195 L 212.5 185 Z " /><path fill="rgb(1,138,233)" stroke="rgb(1,138,233)" stroke-width="1" opacity="0.00392156862745098" d="M 943.5 185 L 941.5 188 L 943.5 185 Z " /><path fill="rgb(1,138,233)" stroke="rgb(1,138,233)" stroke-width="1" opacity="0.00392156862745098" d="M 549.5 186 L 547.5 189 L 549.5 186 Z " /><path fill="rgb(1,138,233)" stroke="rgb(1,138,233)" stroke-width="1" opacity="0.00392156862745098" d="M 868.5 186 L 866.5 189 L 868.5 186 Z " /><path fill="rgb(1,138,233)" stroke="rgb(1,138,233)" stroke-width="1" opacity="0.00392156862745098" d="M 940.5 189 L 939.5 191 L 940.5 189 Z " /><path fill="rgb(1,138,233)" stroke="rgb(1,138,233)" stroke-width="1" opacity="0.00392156862745098" d="M 546.5 190 L 545.5 192 L 546.5 190 Z " /><path fill="rgb(1,138,233)" stroke="rgb(1,138,233)" stroke-width="1" opacity="0.00392156862745098" d="M 658.5 190 L 657.5 192 L 658.5 190 Z " /><path fill="rgb(1,138,233)" stroke="rgb(1,138,233)" stroke-width="1" opacity="0.00392156862745098" d="M 865.5 190 L 864.5 192 L 865.5 190 Z " /><path fill="rgb(1,138,233)" stroke="rgb(1,138,233)" stroke-width="1" opacity="0.00392156862745098" d="M 796.5 191 L 797.5 193 L 796.5 191 Z " /><path fill="rgb(1,138,233)" stroke="rgb(1,138,233)" stroke-width="1" opacity="0.00392156862745098" d="M 655.5 192 L 654.5 194 L 655.5 192 Z " /><path fill="rgb(1,138,233)" stroke="rgb(1,138,233)" stroke-width="1" opacity="0.00392156862745098" d="M 909.5 192 L 908.5 194 L 906.5 195 L 907.5 193 L 909.5 192 Z " /><path fill="rgb(1,138,233)" stroke="rgb(1,138,233)" stroke-width="1" opacity="0.00392156862745098" d="M 472.5 193 L 473 198.5 L 472 198.5 L 472.5 193 Z " /><path fill="rgb(1,138,233)" stroke="rgb(1,138,233)" stroke-width="1" opacity="0.00392156862745098" d="M 544.5 193 L 543.5 195 L 544.5 193 Z " /><path fill="rgb(1,138,233)" stroke="rgb(1,138,233)" stroke-width="1" opacity="0.00392156862745098" d="M 861.5 193 L 859.5 196 L 861.5 193 Z " /><path fill="rgb(1,138,233)" stroke="rgb(1,138,233)" stroke-width="1" opacity="0.00392156862745098" d="M 937.5 193 L 936.5 195 L 937.5 193 Z " /><path fill="rgb(1,138,233)" stroke="rgb(1,138,233)" stroke-width="1" opacity="0.00392156862745098" d="M 652.5 194 L 651.5 196 L 652.5 194 Z " /><path fill="rgb(1,138,233)" stroke="rgb(1,138,233)" stroke-width="1" opacity="0.00392156862745098" d="M 903.5 195 L 905 195.5 L 901.5 197 L 901.5 196 L 903.5 195 Z " /><path fill="rgb(1,138,233)" stroke="rgb(1,138,233)" stroke-width="1" opacity="0.00392156862745098" d="M 542.5 196 L 540.5 199 L 542.5 196 Z " /><path fill="rgb(1,138,233)" stroke="rgb(1,138,233)" stroke-width="1" opacity="0.00392156862745098" d="M 649.5 196 L 648.5 198 L 649.5 196 Z " /><path fill="rgb(1,138,233)" stroke="rgb(1,138,233)" stroke-width="1" opacity="0.00392156862745098" d="M 857.5 196 L 856.5 198 L 857.5 196 Z " /><path fill="rgb(1,138,233)" stroke="rgb(1,138,233)" stroke-width="1" opacity="0.00392156862745098" d="M 223.5 197 L 224.5 199 L 223.5 197 Z " /><path fill="rgb(1,138,233)" stroke="rgb(1,138,233)" stroke-width="1" opacity="0.00392156862745098" d="M 802.5 197 L 803.5 199 L 802.5 197 Z " /><path fill="rgb(1,138,233)" stroke="rgb(1,138,233)" stroke-width="1" opacity="0.00392156862745098" d="M 934.5 197 L 933.5 199 L 934.5 197 Z " /><path fill="rgb(1,138,233)" stroke="rgb(1,138,233)" stroke-width="1" opacity="0.00392156862745098" d="M 646.5 198 L 645.5 200 L 646.5 198 Z " /><path fill="rgb(1,138,233)" stroke="rgb(1,138,233)" stroke-width="1" opacity="0.00392156862745098" d="M 932.5 200 L 931.5 202 L 932.5 200 Z " /><path fill="rgb(1,138,233)" stroke="rgb(1,138,233)" stroke-width="1" opacity="0.00392156862745098" d="M 226.5 201 L 227.5 203 L 226.5 201 Z " /><path fill="rgb(1,138,233)" stroke="rgb(1,138,233)" stroke-width="1" opacity="0.00392156862745098" d="M 642.5 201 L 641.5 203 L 642.5 201 Z " /><path fill="rgb(1,138,233)" stroke="rgb(1,138,233)" stroke-width="1" opacity="0.00392156862745098" d="M 538.5 202 L 537.5 204 L 538.5 202 Z " /><path fill="rgb(1,138,233)" stroke="rgb(1,138,233)" stroke-width="1" opacity="0.00392156862745098" d="M 639.5 203 L 638.5 205 L 639.5 203 Z " /><path fill="rgb(1,138,233)" stroke="rgb(1,138,233)" stroke-width="1" opacity="0.00392156862745098" d="M 823.5 204 L 828 204.5 L 823.5 205 L 823.5 204 Z " /><path fill="rgb(1,138,233)" stroke="rgb(1,138,233)" stroke-width="1" opacity="0.00392156862745098" d="M 829.5 204 L 834 204.5 L 829.5 205 L 829.5 204 Z " /><path fill="rgb(1,138,233)" stroke="rgb(1,138,233)" stroke-width="1" opacity="0.00392156862745098" d="M 929.5 204 L 928.5 206 L 929.5 204 Z " /><path fill="rgb(1,138,233)" stroke="rgb(1,138,233)" stroke-width="1" opacity="0.00392156862745098" d="M 636.5 205 L 635.5 207 L 636.5 205 Z " /><path fill="rgb(1,138,233)" stroke="rgb(1,138,233)" stroke-width="1" opacity="0.00392156862745098" d="M 229.5 206 L 230.5 208 L 229.5 206 Z " /><path fill="rgb(1,138,233)" stroke="rgb(1,138,233)" stroke-width="1" opacity="0.00392156862745098" d="M 13.5 207 L 14 215.5 L 13 215.5 L 13.5 207 Z " /><path fill="rgb(1,138,233)" stroke="rgb(1,138,233)" stroke-width="1" opacity="0.00392156862745098" d="M 633.5 207 L 632.5 209 L 633.5 207 Z " /><path fill="rgb(1,138,233)" stroke="rgb(1,138,233)" stroke-width="1" opacity="0.00392156862745098" d="M 927.5 207 L 926.5 209 L 927.5 207 Z " /><path fill="rgb(1,138,233)" stroke="rgb(1,138,233)" stroke-width="1" opacity="0.00392156862745098" d="M 534.5 209 L 533.5 211 L 534.5 209 Z " /><path fill="rgb(1,138,233)" stroke="rgb(1,138,233)" stroke-width="1" opacity="0.00392156862745098" d="M 470.5 210 L 467.5 214 L 470.5 210 Z " /><path fill="rgb(1,138,233)" stroke="rgb(1,138,233)" stroke-width="1" opacity="0.00392156862745098" d="M 629.5 210 L 627.5 213 L 629.5 210 Z " /><path fill="rgb(1,138,233)" stroke="rgb(1,138,233)" stroke-width="1" opacity="0.00392156862745098" d="M 102.5 211 L 107 211.5 L 102.5 212 L 102.5 211 Z " /><path fill="rgb(1,138,233)" stroke="rgb(1,138,233)" stroke-width="1" opacity="0.00392156862745098" d="M 122.5 211 L 126 211.5 L 122.5 212 L 122.5 211 Z " /><path fill="rgb(1,138,233)" stroke="rgb(1,138,233)" stroke-width="1" opacity="0.00392156862745098" d="M 285.5 211 L 286 219.5 L 285 219.5 L 285.5 211 Z " /><path fill="rgb(1,138,233)" stroke="rgb(1,138,233)" stroke-width="1" opacity="0.00392156862745098" d="M 924.5 211 L 923.5 213 L 924.5 211 Z " /><path fill="rgb(1,138,233)" stroke="rgb(1,138,233)" stroke-width="1" opacity="0.00392156862745098" d="M 625.5 213 L 623.5 216 L 625.5 213 Z " /><path fill="rgb(1,138,233)" stroke="rgb(1,138,233)" stroke-width="1" opacity="0.00392156862745098" d="M 462.5 214 L 465 214.5 L 462.5 215 L 462.5 214 Z " /><path fill="rgb(1,138,233)" stroke="rgb(1,138,233)" stroke-width="1" opacity="0.00392156862745098" d="M 922.5 214 L 920.5 217 L 922.5 214 Z " /><path fill="rgb(1,138,233)" stroke="rgb(1,138,233)" stroke-width="1" opacity="0.00392156862745098" d="M 360.5 216 L 357.5 220 L 360.5 216 Z " /><path fill="rgb(1,138,233)" stroke="rgb(1,138,233)" stroke-width="1" opacity="0.00392156862745098" d="M 764.5 216 L 766 216.5 L 763.5 218 L 764.5 216 Z " /><path fill="rgb(1,138,233)" stroke="rgb(1,138,233)" stroke-width="1" opacity="0.00392156862745098" d="M 146.5 217 L 147.5 219 L 146.5 217 Z " /><path fill="rgb(1,138,233)" stroke="rgb(1,138,233)" stroke-width="1" opacity="0.00392156862745098" d="M 620.5 217 L 617.5 221 L 620.5 217 Z " /><path fill="rgb(1,138,233)" stroke="rgb(1,138,233)" stroke-width="1" opacity="0.00392156862745098" d="M 919.5 218 L 918.5 220 L 919.5 218 Z " /><path fill="rgb(1,138,233)" stroke="rgb(1,138,233)" stroke-width="1" opacity="0.00392156862745098" d="M 151.5 220 L 153.5 223 L 151.5 220 Z " /><path fill="rgb(1,138,233)" stroke="rgb(1,138,233)" stroke-width="1" opacity="0.00392156862745098" d="M 798.5 221 L 803 221.5 L 798.5 222 L 798.5 221 Z " /><path fill="rgb(1,138,233)" stroke="rgb(1,138,233)" stroke-width="1" opacity="0.00392156862745098" d="M 818.5 221 L 823 221.5 L 818.5 222 L 818.5 221 Z " /><path fill="rgb(1,138,233)" stroke="rgb(1,138,233)" stroke-width="1" opacity="0.00392156862745098" d="M 917.5 221 L 916.5 223 L 917.5 221 Z " /><path fill="rgb(1,138,233)" stroke="rgb(1,138,233)" stroke-width="1" opacity="0.00392156862745098" d="M 614.5 222 L 609.5 228 L 614.5 222 Z " /><path fill="rgb(1,138,233)" stroke="rgb(1,138,233)" stroke-width="1" opacity="0.00392156862745098" d="M 526.5 224 L 527 225.5 L 525.5 228 L 525 226.5 L 526.5 224 Z " /><path fill="rgb(1,138,233)" stroke="rgb(1,138,233)" stroke-width="1" opacity="0.00392156862745098" d="M 915.5 224 L 914.5 226 L 915.5 224 Z " /><path fill="rgb(1,138,233)" stroke="rgb(1,138,233)" stroke-width="1" opacity="0.00392156862745098" d="M 156.5 225 L 160.5 230 L 156.5 225 Z " /><path fill="rgb(1,138,233)" stroke="rgb(1,138,233)" stroke-width="1" opacity="0.00392156862745098" d="M 82.5 226 L 83 229.5 L 82 229.5 L 82.5 226 Z " /><path fill="rgb(1,138,233)" stroke="rgb(1,138,233)" stroke-width="1" opacity="0.00392156862745098" d="M 161.5 231 L 162.5 233 L 161.5 231 Z " /><path fill="rgb(1,138,233)" stroke="rgb(1,138,233)" stroke-width="1" opacity="0.00392156862745098" d="M 603.5 232 L 599.5 237 L 603.5 232 Z " /><path fill="rgb(1,138,233)" stroke="rgb(1,138,233)" stroke-width="1" opacity="0.00392156862745098" d="M 910.5 232 L 909.5 234 L 910.5 232 Z " /><path fill="rgb(1,138,233)" stroke="rgb(1,138,233)" stroke-width="1" opacity="0.00392156862745098" d="M 284.5 236 L 285 240.5 L 284 240.5 L 284.5 236 Z " /><path fill="rgb(1,138,233)" stroke="rgb(1,138,233)" stroke-width="1" opacity="0.00392156862745098" d="M 12.5 237 L 13 245.5 L 12 245.5 L 12.5 237 Z " /><path fill="rgb(1,138,233)" stroke="rgb(1,138,233)" stroke-width="1" opacity="0.00392156862745098" d="M 907.5 237 L 906.5 239 L 907.5 237 Z " /><path fill="rgb(1,138,233)" stroke="rgb(1,138,233)" stroke-width="1" opacity="0.00392156862745098" d="M 596.5 240 L 590.5 247 L 596.5 240 Z " /><path fill="rgb(1,138,233)" stroke="rgb(1,138,233)" stroke-width="1" opacity="0.00392156862745098" d="M 904.5 242 L 903.5 244 L 904.5 242 Z " /><path fill="rgb(1,138,233)" stroke="rgb(1,138,233)" stroke-width="1" opacity="0.00392156862745098" d="M 356.5 245 L 358.5 248 L 356.5 245 Z " /><path fill="rgb(1,138,233)" stroke="rgb(1,138,233)" stroke-width="1" opacity="0.00392156862745098" d="M 81.5 247 L 82 254.5 L 81 254.5 L 81.5 247 Z " /><path fill="rgb(1,138,233)" stroke="rgb(1,138,233)" stroke-width="1" opacity="0.00392156862745098" d="M 243.5 248 L 244 250.5 L 243 250.5 L 243.5 248 Z " /><path fill="rgb(1,138,233)" stroke="rgb(1,138,233)" stroke-width="1" opacity="0.00392156862745098" d="M 589.5 248 L 586.5 252 L 589.5 248 Z " /><path fill="rgb(1,138,233)" stroke="rgb(1,138,233)" stroke-width="1" opacity="0.00392156862745098" d="M 447.5 250 L 450.5 254 L 447.5 250 Z " /><path fill="rgb(1,138,233)" stroke="rgb(1,138,233)" stroke-width="1" opacity="0.00392156862745098" d="M 283.5 252 L 284 256.5 L 283 256.5 L 283.5 252 Z " /><path fill="rgb(1,138,233)" stroke="rgb(1,138,233)" stroke-width="1" opacity="0.00392156862745098" d="M 169.5 253 L 170 255.5 L 169 255.5 L 169.5 253 Z " /><path fill="rgb(1,138,233)" stroke="rgb(1,138,233)" stroke-width="1" opacity="0.00392156862745098" d="M 585.5 253 L 583.5 256 L 585.5 253 Z " /><path fill="rgb(1,138,233)" stroke="rgb(1,138,233)" stroke-width="1" opacity="0.00392156862745098" d="M 244.5 256 L 245 259.5 L 244 259.5 L 244.5 256 Z " /><path fill="rgb(1,138,233)" stroke="rgb(1,138,233)" stroke-width="1" opacity="0.00392156862745098" d="M 582.5 257 L 581.5 259 L 582.5 257 Z " /><path fill="rgb(1,138,233)" stroke="rgb(1,138,233)" stroke-width="1" opacity="0.00392156862745098" d="M 580.5 260 L 579.5 262 L 580.5 260 Z " /><path fill="rgb(1,138,233)" stroke="rgb(1,138,233)" stroke-width="1" opacity="0.00392156862745098" d="M 170.5 262 L 171 273.5 L 170 273.5 L 170.5 262 Z " /><path fill="rgb(1,138,233)" stroke="rgb(1,138,233)" stroke-width="1" opacity="0.00392156862745098" d="M 578.5 263 L 577.5 265 L 578.5 263 Z " /><path fill="rgb(1,138,233)" stroke="rgb(1,138,233)" stroke-width="1" opacity="0.00392156862745098" d="M 11.5 266 L 12 274.5 L 11 274.5 L 11.5 266 Z " /><path fill="rgb(1,138,233)" stroke="rgb(1,138,233)" stroke-width="1" opacity="0.00392156862745098" d="M 282.5 268 L 283 273.5 L 282 273.5 L 282.5 268 Z " /><path fill="rgb(1,138,233)" stroke="rgb(1,138,233)" stroke-width="1" opacity="0.00392156862745098" d="M 80.5 269 L 81 274.5 L 80 274.5 L 80.5 269 Z " /><path fill="rgb(1,138,233)" stroke="rgb(1,138,233)" stroke-width="1" opacity="0.00392156862745098" d="M 451.5 270 L 452 275.5 L 451 275.5 L 451.5 270 Z " /><path fill="rgb(1,138,233)" stroke="rgb(1,138,233)" stroke-width="1" opacity="0.00392156862745098" d="M 573.5 271 L 572.5 273 L 573.5 271 Z " /><path fill="rgb(1,138,233)" stroke="rgb(1,138,233)" stroke-width="1" opacity="0.00392156862745098" d="M 511.5 275 L 512 277.5 L 511 277.5 L 511.5 275 Z " /><path fill="rgb(1,138,233)" stroke="rgb(1,138,233)" stroke-width="1" opacity="0.00392156862745098" d="M 281.5 282 L 282 285.5 L 281 285.5 L 281.5 282 Z " /><path fill="rgb(1,138,233)" stroke="rgb(1,138,233)" stroke-width="1" opacity="0.00392156862745098" d="M 244.5 283 L 245 285.5 L 244 285.5 L 244.5 283 Z " /><path fill="rgb(1,138,233)" stroke="rgb(1,138,233)" stroke-width="1" opacity="0.00392156862745098" d="M 10.5 288 L 11 293.5 L 10 293.5 L 10.5 288 Z " /><path fill="rgb(1,138,233)" stroke="rgb(1,138,233)" stroke-width="1" opacity="0.00392156862745098" d="M 79.5 288 L 80 293.5 L 79 293.5 L 79.5 288 Z " /><path fill="rgb(1,138,233)" stroke="rgb(1,138,233)" stroke-width="1" opacity="0.00392156862745098" d="M 776.5 291 L 777.5 293 L 776.5 291 Z " /><path fill="rgb(1,138,233)" stroke="rgb(1,138,233)" stroke-width="1" opacity="0.00392156862745098" d="M 447.5 292 L 445.5 295 L 447.5 292 Z " /><path fill="rgb(1,138,233)" stroke="rgb(1,138,233)" stroke-width="1" opacity="0.00392156862745098" d="M 280.5 294 L 281 297.5 L 280 297.5 L 280.5 294 Z " /><path fill="rgb(1,138,233)" stroke="rgb(1,138,233)" stroke-width="1" opacity="0.00392156862745098" d="M 509.5 296 L 510 301.5 L 509 301.5 L 509.5 296 Z " /><path fill="rgb(1,138,233)" stroke="rgb(1,138,233)" stroke-width="1" opacity="0.00392156862745098" d="M 779.5 296 L 781.5 299 L 779.5 296 Z " /><path fill="rgb(1,138,233)" stroke="rgb(1,138,233)" stroke-width="1" opacity="0.00392156862745098" d="M 431.5 297 L 436 297.5 L 431.5 298 L 431.5 297 Z " /><path fill="rgb(1,138,233)" stroke="rgb(1,138,233)" stroke-width="1" opacity="0.00392156862745098" d="M 361.5 298 L 367 298.5 L 361.5 299 L 361.5 298 Z " /><path fill="rgb(1,138,233)" stroke="rgb(1,138,233)" stroke-width="1" opacity="0.00392156862745098" d="M 386.5 298 L 399 298.5 L 386.5 299 L 386.5 298 Z " /><path fill="rgb(1,138,233)" stroke="rgb(1,138,233)" stroke-width="1" opacity="0.00392156862745098" d="M 782.5 300 L 789.5 308 L 782.5 300 Z " /><path fill="rgb(1,138,233)" stroke="rgb(1,138,233)" stroke-width="1" opacity="0.00392156862745098" d="M 164.5 301 L 165 302.5 L 162.5 306 L 163 304.5 L 164.5 301 Z " /><path fill="rgb(1,138,233)" stroke="rgb(1,138,233)" stroke-width="1" opacity="0.00392156862745098" d="M 351.5 304 L 352 308.5 L 351 308.5 L 351.5 304 Z " /><path fill="rgb(1,138,233)" stroke="rgb(1,138,233)" stroke-width="1" opacity="0.00392156862745098" d="M 509.5 305 L 510 311.5 L 509 311.5 L 509.5 305 Z " /><path fill="rgb(1,138,233)" stroke="rgb(1,138,233)" stroke-width="1" opacity="0.00392156862745098" d="M 560.5 305 L 561 307.5 L 560 307.5 L 560.5 305 Z " /><path fill="rgb(1,138,233)" stroke="rgb(1,138,233)" stroke-width="1" opacity="0.00392156862745098" d="M 279.5 306 L 280 309.5 L 279 309.5 L 279.5 306 Z " /><path fill="rgb(1,138,233)" stroke="rgb(1,138,233)" stroke-width="1" opacity="0.00392156862745098" d="M 882.5 306 L 883 309.5 L 882 309.5 L 882.5 306 Z " /><path fill="rgb(1,138,233)" stroke="rgb(1,138,233)" stroke-width="1" opacity="0.00392156862745098" d="M 9.5 307 L 10 313.5 L 9 313.5 L 9.5 307 Z " /><path fill="rgb(1,138,233)" stroke="rgb(1,138,233)" stroke-width="1" opacity="0.00392156862745098" d="M 791.5 308 L 793.5 311 L 791.5 308 Z " /><path fill="rgb(1,138,233)" stroke="rgb(1,138,233)" stroke-width="1" opacity="0.00392156862745098" d="M 160.5 309 L 159.5 311 L 160.5 309 Z " /><path fill="rgb(1,138,233)" stroke="rgb(1,138,233)" stroke-width="1" opacity="0.00392156862745098" d="M 158.5 312 L 154.5 317 L 158.5 312 Z " /><path fill="rgb(1,138,233)" stroke="rgb(1,138,233)" stroke-width="1" opacity="0.00392156862745098" d="M 278.5 317 L 279 320.5 L 278 320.5 L 278.5 317 Z " /><path fill="rgb(1,138,233)" stroke="rgb(1,138,233)" stroke-width="1" opacity="0.00392156862745098" d="M 150.5 320 L 148.5 323 L 150.5 320 Z " /><path fill="rgb(1,138,233)" stroke="rgb(1,138,233)" stroke-width="1" opacity="0.00392156862745098" d="M 510.5 322 L 511 324.5 L 510 324.5 L 510.5 322 Z " /><path fill="rgb(1,138,233)" stroke="rgb(1,138,233)" stroke-width="1" opacity="0.00392156862745098" d="M 882.5 322 L 883 326.5 L 882 326.5 L 882.5 322 Z " /><path fill="rgb(1,138,233)" stroke="rgb(1,138,233)" stroke-width="1" opacity="0.00392156862745098" d="M 146.5 323 L 144.5 326 L 146.5 323 Z " /><path fill="rgb(1,138,233)" stroke="rgb(1,138,233)" stroke-width="1" opacity="0.00392156862745098" d="M 350.5 323 L 351 325.5 L 350 325.5 L 350.5 323 Z " /><path fill="rgb(1,138,233)" stroke="rgb(1,138,233)" stroke-width="1" opacity="0.00392156862745098" d="M 8.5 325 L 9 329.5 L 8 329.5 L 8.5 325 Z " /><path fill="rgb(1,138,233)" stroke="rgb(1,138,233)" stroke-width="1" opacity="0.00392156862745098" d="M 232.5 325 L 231.5 327 L 232.5 325 Z " /><path fill="rgb(1,138,233)" stroke="rgb(1,138,233)" stroke-width="1" opacity="0.00392156862745098" d="M 560.5 325 L 561 327.5 L 560 327.5 L 560.5 325 Z " /><path fill="rgb(1,138,233)" stroke="rgb(1,138,233)" stroke-width="1" opacity="0.00392156862745098" d="M 138.5 328 L 137.5 330 L 138.5 328 Z " /><path fill="rgb(1,138,233)" stroke="rgb(1,138,233)" stroke-width="1" opacity="0.00392156862745098" d="M 277.5 329 L 278 332.5 L 277 332.5 L 277.5 329 Z " /><path fill="rgb(1,138,233)" stroke="rgb(1,138,233)" stroke-width="1" opacity="0.00392156862745098" d="M 350.5 330 L 354 334.5 L 350 331.5 L 350.5 330 Z " /><path fill="rgb(1,138,233)" stroke="rgb(1,138,233)" stroke-width="1" opacity="0.00392156862745098" d="M 228.5 332 L 227.5 334 L 228.5 332 Z " /><path fill="rgb(1,138,233)" stroke="rgb(1,138,233)" stroke-width="1" opacity="0.00392156862745098" d="M 883.5 332 L 884 334.5 L 883 334.5 L 883.5 332 Z " /><path fill="rgb(1,138,233)" stroke="rgb(1,138,233)" stroke-width="1" opacity="0.00392156862745098" d="M 447.5 333 L 457 333.5 L 447.5 334 L 447.5 333 Z " /><path fill="rgb(1,138,233)" stroke="rgb(1,138,233)" stroke-width="1" opacity="0.00392156862745098" d="M 422.5 334 L 432 334.5 L 422.5 335 L 422.5 334 Z " /><path fill="rgb(1,138,233)" stroke="rgb(1,138,233)" stroke-width="1" opacity="0.00392156862745098" d="M 86.5 335 L 90 335.5 L 86.5 336 L 86.5 335 Z " /><path fill="rgb(1,138,233)" stroke="rgb(1,138,233)" stroke-width="1" opacity="0.00392156862745098" d="M 226.5 335 L 225.5 337 L 226.5 335 Z " /><path fill="rgb(1,138,233)" stroke="rgb(1,138,233)" stroke-width="1" opacity="0.00392156862745098" d="M 357.5 335 L 361 335.5 L 357.5 336 L 357.5 335 Z " /><path fill="rgb(1,138,233)" stroke="rgb(1,138,233)" stroke-width="1" opacity="0.00392156862745098" d="M 363.5 335 L 384 335.5 L 363.5 336 L 363.5 335 Z " /><path fill="rgb(1,138,233)" stroke="rgb(1,138,233)" stroke-width="1" opacity="0.00392156862745098" d="M 462.5 335 L 465 338.5 L 464 338.5 L 462.5 335 Z " /><path fill="rgb(1,138,233)" stroke="rgb(1,138,233)" stroke-width="1" opacity="0.00392156862745098" d="M 96.5 336 L 99 336.5 L 96.5 337 L 96.5 336 Z " /><path fill="rgb(1,138,233)" stroke="rgb(1,138,233)" stroke-width="1" opacity="0.00392156862745098" d="M 224.5 338 L 223.5 340 L 224.5 338 Z " /><path fill="rgb(1,138,233)" stroke="rgb(1,138,233)" stroke-width="1" opacity="0.00392156862745098" d="M 7.5 339 L 8 342.5 L 7 342.5 L 7.5 339 Z " /><path fill="rgb(1,138,233)" stroke="rgb(1,138,233)" stroke-width="1" opacity="0.00392156862745098" d="M 276.5 341 L 277 344.5 L 276 344.5 L 276.5 341 Z " /><path fill="rgb(1,138,233)" stroke="rgb(1,138,233)" stroke-width="1" opacity="0.00392156862745098" d="M 221.5 342 L 219.5 345 L 221.5 342 Z " /><path fill="rgb(1,138,233)" stroke="rgb(1,138,233)" stroke-width="1" opacity="0.00392156862745098" d="M 883.5 342 L 884 343.5 L 882 344.5 L 883.5 342 Z " /><path fill="rgb(1,138,233)" stroke="rgb(1,138,233)" stroke-width="1" opacity="0.00392156862745098" d="M 876.5 345 L 881 345.5 L 876.5 346 L 876.5 345 Z " /><path fill="rgb(1,138,233)" stroke="rgb(1,138,233)" stroke-width="1" opacity="0.00392156862745098" d="M 218.5 346 L 213.5 352 L 218.5 346 Z " /><path fill="rgb(1,138,233)" stroke="rgb(1,138,233)" stroke-width="1" opacity="0.00392156862745098" d="M 6.5 351 L 7 354.5 L 6 354.5 L 6.5 351 Z " /><path fill="rgb(1,138,233)" stroke="rgb(1,138,233)" stroke-width="1" opacity="0.00392156862745098" d="M 275.5 353 L 276 356.5 L 275 356.5 L 275.5 353 Z " /><path fill="rgb(1,138,233)" stroke="rgb(1,138,233)" stroke-width="1" opacity="0.00392156862745098" d="M 464.5 354 L 465 357.5 L 464 357.5 L 464.5 354 Z " /><path fill="rgb(1,138,233)" stroke="rgb(1,138,233)" stroke-width="1" opacity="0.00392156862745098" d="M 571.5 356 L 572.5 358 L 571.5 356 Z " /><path fill="rgb(1,138,233)" stroke="rgb(1,138,233)" stroke-width="1" opacity="0.00392156862745098" d="M 573.5 359 L 574.5 361 L 573.5 359 Z " /><path fill="rgb(1,138,233)" stroke="rgb(1,138,233)" stroke-width="1" opacity="0.00392156862745098" d="M 204.5 360 L 202.5 363 L 204.5 360 Z " /><path fill="rgb(1,138,233)" stroke="rgb(1,138,233)" stroke-width="1" opacity="0.00392156862745098" d="M 5.5 362 L 6 365.5 L 5 365.5 L 5.5 362 Z " /><path fill="rgb(1,138,233)" stroke="rgb(1,138,233)" stroke-width="1" opacity="0.00392156862745098" d="M 575.5 362 L 577.5 365 L 575.5 362 Z " /><path fill="rgb(1,138,233)" stroke="rgb(1,138,233)" stroke-width="1" opacity="0.00392156862745098" d="M 199.5 364 L 197.5 367 L 199.5 364 Z " /><path fill="rgb(1,138,233)" stroke="rgb(1,138,233)" stroke-width="1" opacity="0.00392156862745098" d="M 274.5 364 L 275 367.5 L 274 367.5 L 274.5 364 Z " /><path fill="rgb(1,138,233)" stroke="rgb(1,138,233)" stroke-width="1" opacity="0.00392156862745098" d="M 463.5 364 L 464 366.5 L 463 366.5 L 463.5 364 Z " /><path fill="rgb(1,138,233)" stroke="rgb(1,138,233)" stroke-width="1" opacity="0.00392156862745098" d="M 578.5 366 L 581.5 370 L 578.5 366 Z " /><path fill="rgb(1,138,233)" stroke="rgb(1,138,233)" stroke-width="1" opacity="0.00392156862745098" d="M 195.5 367 L 194.5 369 L 195.5 367 Z " /><path fill="rgb(1,138,233)" stroke="rgb(1,138,233)" stroke-width="1" opacity="0.00392156862745098" d="M 190.5 370 L 189.5 372 L 190.5 370 Z " /><path fill="rgb(1,138,233)" stroke="rgb(1,138,233)" stroke-width="1" opacity="0.00392156862745098" d="M 583.5 372 L 587.5 377 L 583.5 372 Z " /><path fill="rgb(1,138,233)" stroke="rgb(1,138,233)" stroke-width="1" opacity="0.00392156862745098" d="M 4.5 373 L 5 376.5 L 4 376.5 L 4.5 373 Z " /><path fill="rgb(1,138,233)" stroke="rgb(1,138,233)" stroke-width="1" opacity="0.00392156862745098" d="M 274.5 374 L 275 376.5 L 274 376.5 L 274.5 374 Z " /><path fill="rgb(1,138,233)" stroke="rgb(1,138,233)" stroke-width="1" opacity="0.00392156862745098" d="M 459.5 379 L 456.5 383 L 459.5 379 Z " /><path fill="rgb(1,138,233)" stroke="rgb(1,138,233)" stroke-width="1" opacity="0.00392156862745098" d="M 589.5 379 L 590.5 381 L 589.5 379 Z " /><path fill="rgb(1,138,233)" stroke="rgb(1,138,233)" stroke-width="1" opacity="0.00392156862745098" d="M 276.5 381 L 278.5 384 L 276.5 381 Z " /><path fill="rgb(1,138,233)" stroke="rgb(1,138,233)" stroke-width="1" opacity="0.00392156862745098" d="M 6.5 382 L 8.5 385 L 6.5 382 Z " /><path fill="rgb(1,138,233)" stroke="rgb(1,138,233)" stroke-width="1" opacity="0.00392156862745098" d="M 528.5 382 L 529.5 384 L 528.5 382 Z " /><path fill="rgb(1,138,233)" stroke="rgb(1,138,233)" stroke-width="1" opacity="0.00392156862745098" d="M 147.5 383 L 150 383.5 L 147.5 384 L 147.5 383 Z " /><path fill="rgb(1,138,233)" stroke="rgb(1,138,233)" stroke-width="1" opacity="0.00392156862745098" d="M 135.5 384 L 140 384.5 L 135.5 385 L 135.5 384 Z " /><path fill="rgb(1,138,233)" stroke="rgb(1,138,233)" stroke-width="1" opacity="0.00392156862745098" d="M 11.5 385 L 14 385.5 L 11.5 386 L 11.5 385 Z " /><path fill="rgb(1,138,233)" stroke="rgb(1,138,233)" stroke-width="1" opacity="0.00392156862745098" d="M 115.5 385 L 124 385.5 L 115.5 386 L 115.5 385 Z " /><path fill="rgb(1,138,233)" stroke="rgb(1,138,233)" stroke-width="1" opacity="0.00392156862745098" d="M 283.5 385 L 286 385.5 L 283.5 386 L 283.5 385 Z " /><path fill="rgb(1,138,233)" stroke="rgb(1,138,233)" stroke-width="1" opacity="0.00392156862745098" d="M 321.5 385 L 352 385.5 L 321.5 386 L 321.5 385 Z " /><path fill="rgb(1,138,233)" stroke="rgb(1,138,233)" stroke-width="1" opacity="0.00392156862745098" d="M 438.5 385 L 444 385.5 L 438.5 386 L 438.5 385 Z " /><path fill="rgb(1,138,233)" stroke="rgb(1,138,233)" stroke-width="1" opacity="0.00392156862745098" d="M 531.5 387 L 532.5 389 L 531.5 387 Z " /><path fill="rgb(1,138,233)" stroke="rgb(1,138,233)" stroke-width="1" opacity="0.00392156862745098" d="M 595.5 388 L 602.5 396 L 595.5 388 Z " /><path fill="rgb(1,138,233)" stroke="rgb(1,138,233)" stroke-width="1" opacity="0.00392156862745098" d="M 533.5 390 L 534.5 392 L 533.5 390 Z " /><path fill="rgb(1,138,233)" stroke="rgb(1,138,233)" stroke-width="1" opacity="0.00392156862745098" d="M 536.5 395 L 537.5 397 L 536.5 395 Z " /><path fill="rgb(1,138,233)" stroke="rgb(1,138,233)" stroke-width="1" opacity="0.00392156862745098" d="M 538.5 398 L 540.5 401 L 538.5 398 Z " /><path fill="rgb(1,138,233)" stroke="rgb(1,138,233)" stroke-width="1" opacity="0.00392156862745098" d="M 898.5 400 L 900 402.5 L 899 402.5 L 898.5 400 Z " /><path fill="rgb(1,138,233)" stroke="rgb(1,138,233)" stroke-width="1" opacity="0.00392156862745098" d="M 372.5 401 L 383 401.5 L 372.5 402 L 372.5 401 Z " /><path fill="rgb(1,138,233)" stroke="rgb(1,138,233)" stroke-width="1" opacity="0.00392156862745098" d="M 387.5 402 L 390 402.5 L 387.5 403 L 387.5 402 Z " /><path fill="rgb(1,138,233)" stroke="rgb(1,138,233)" stroke-width="1" opacity="0.00392156862745098" d="M 873.5 402 L 872.5 404 L 873.5 402 Z " /><path fill="rgb(1,138,233)" stroke="rgb(1,138,233)" stroke-width="1" opacity="0.00392156862745098" d="M 0.5 404 L 3 404.5 L 0.5 405 L 0.5 404 Z " /><path fill="rgb(1,138,233)" stroke="rgb(1,138,233)" stroke-width="1" opacity="0.00392156862745098" d="M 362.5 404 L 361.5 406 L 362.5 404 Z " /><path fill="rgb(1,138,233)" stroke="rgb(1,138,233)" stroke-width="1" opacity="0.00392156862745098" d="M 868.5 405 L 867.5 407 L 868.5 405 Z " /><path fill="rgb(1,138,233)" stroke="rgb(1,138,233)" stroke-width="1" opacity="0.00392156862745098" d="M 899.5 405 L 900 406.5 L 898 407.5 L 899.5 405 Z " /><path fill="rgb(1,138,233)" stroke="rgb(1,138,233)" stroke-width="1" opacity="0.00392156862745098" d="M 314.5 406 L 317 406.5 L 314.5 407 L 314.5 406 Z " /><path fill="rgb(1,138,233)" stroke="rgb(1,138,233)" stroke-width="1" opacity="0.00392156862745098" d="M 19.5 407 L 26 407.5 L 19.5 408 L 19.5 407 Z " /><path fill="rgb(1,138,233)" stroke="rgb(1,138,233)" stroke-width="1" opacity="0.00392156862745098" d="M 38.5 407 L 55 407.5 L 38.5 408 L 38.5 407 Z " /><path fill="rgb(1,138,233)" stroke="rgb(1,138,233)" stroke-width="1" opacity="0.00392156862745098" d="M 58.5 407 L 68 407.5 L 58.5 408 L 58.5 407 Z " /><path fill="rgb(1,138,233)" stroke="rgb(1,138,233)" stroke-width="1" opacity="0.00392156862745098" d="M 153.5 407 L 160 407.5 L 153.5 408 L 153.5 407 Z " /><path fill="rgb(1,138,233)" stroke="rgb(1,138,233)" stroke-width="1" opacity="0.00392156862745098" d="M 294.5 407 L 296 407.5 L 292.5 410 L 294.5 407 Z " /><path fill="rgb(1,138,233)" stroke="rgb(1,138,233)" stroke-width="1" opacity="0.00392156862745098" d="M 321.5 407 L 324 407.5 L 321.5 408 L 321.5 407 Z " /><path fill="rgb(1,138,233)" stroke="rgb(1,138,233)" stroke-width="1" opacity="0.00392156862745098" d="M 359.5 407 L 358.5 409 L 359.5 407 Z " /><path fill="rgb(1,138,233)" stroke="rgb(1,138,233)" stroke-width="1" opacity="0.00392156862745098" d="M 364.5 407 L 361.5 411 L 364.5 407 Z " /><path fill="rgb(1,138,233)" stroke="rgb(1,138,233)" stroke-width="1" opacity="0.00392156862745098" d="M 75.5 408 L 78 408.5 L 75.5 409 L 75.5 408 Z " /><path fill="rgb(1,138,233)" stroke="rgb(1,138,233)" stroke-width="1" opacity="0.00392156862745098" d="M 144.5 408 L 147 408.5 L 144.5 409 L 144.5 408 Z " /><path fill="rgb(1,138,233)" stroke="rgb(1,138,233)" stroke-width="1" opacity="0.00392156862745098" d="M 863.5 408 L 862.5 410 L 863.5 408 Z " /><path fill="rgb(1,138,233)" stroke="rgb(1,138,233)" stroke-width="1" opacity="0.00392156862745098" d="M 82.5 409 L 85 409.5 L 82.5 410 L 82.5 409 Z " /><path fill="rgb(1,138,233)" stroke="rgb(1,138,233)" stroke-width="1" opacity="0.00392156862745098" d="M 301.5 409 L 311 409.5 L 301.5 410 L 301.5 409 Z " /><path fill="rgb(1,138,233)" stroke="rgb(1,138,233)" stroke-width="1" opacity="0.00392156862745098" d="M 13.5 410 L 16 410.5 L 13.5 411 L 13.5 410 Z " /><path fill="rgb(1,138,233)" stroke="rgb(1,138,233)" stroke-width="1" opacity="0.00392156862745098" d="M 131.5 410 L 134 410.5 L 131.5 411 L 131.5 410 Z " /><path fill="rgb(1,138,233)" stroke="rgb(1,138,233)" stroke-width="1" opacity="0.00392156862745098" d="M 195.5 410 L 197.5 413 L 195.5 410 Z " /><path fill="rgb(1,138,233)" stroke="rgb(1,138,233)" stroke-width="1" opacity="0.00392156862745098" d="M 317.5 410 L 320 410.5 L 317.5 411 L 317.5 410 Z " /><path fill="rgb(1,138,233)" stroke="rgb(1,138,233)" stroke-width="1" opacity="0.00392156862745098" d="M 895.5 410 L 892.5 414 L 895.5 410 Z " /><path fill="rgb(1,138,233)" stroke="rgb(1,138,233)" stroke-width="1" opacity="0.00392156862745098" d="M 69.5 411 L 72 411.5 L 69.5 412 L 69.5 411 Z " /><path fill="rgb(1,138,233)" stroke="rgb(1,138,233)" stroke-width="1" opacity="0.00392156862745098" d="M 148.5 411 L 151 411.5 L 148.5 412 L 148.5 411 Z " /><path fill="rgb(1,138,233)" stroke="rgb(1,138,233)" stroke-width="1" opacity="0.00392156862745098" d="M 161.5 411 L 164 411.5 L 161.5 412 L 161.5 411 Z " /><path fill="rgb(1,138,233)" stroke="rgb(1,138,233)" stroke-width="1" opacity="0.00392156862745098" d="M 167.5 411 L 168 413.5 L 167 413.5 L 167.5 411 Z " /><path fill="rgb(1,138,233)" stroke="rgb(1,138,233)" stroke-width="1" opacity="0.00392156862745098" d="M 182.5 411 L 180.5 414 L 182.5 411 Z " /><path fill="rgb(1,138,233)" stroke="rgb(1,138,233)" stroke-width="1" opacity="0.00392156862745098" d="M 290.5 411 L 289.5 413 L 290.5 411 Z " /><path fill="rgb(1,138,233)" stroke="rgb(1,138,233)" stroke-width="1" opacity="0.00392156862745098" d="M 295.5 411 L 292.5 415 L 295.5 411 Z " /><path fill="rgb(1,138,233)" stroke="rgb(1,138,233)" stroke-width="1" opacity="0.00392156862745098" d="M 858.5 411 L 857.5 413 L 858.5 411 Z " /><path fill="rgb(1,138,233)" stroke="rgb(1,138,233)" stroke-width="1" opacity="0.00392156862745098" d="M 78.5 412 L 81 412.5 L 78.5 413 L 78.5 412 Z " /><path fill="rgb(1,138,233)" stroke="rgb(1,138,233)" stroke-width="1" opacity="0.00392156862745098" d="M 117.5 412 L 121 412.5 L 117.5 413 L 117.5 412 Z " /><path fill="rgb(1,138,233)" stroke="rgb(1,138,233)" stroke-width="1" opacity="0.00392156862745098" d="M 346.5 412 L 349 412.5 L 346.5 413 L 346.5 412 Z " /><path fill="rgb(1,138,233)" stroke="rgb(1,138,233)" stroke-width="1" opacity="0.00392156862745098" d="M 495.5 412 L 500 412.5 L 495.5 413 L 495.5 412 Z " /><path fill="rgb(1,138,233)" stroke="rgb(1,138,233)" stroke-width="1" opacity="0.00392156862745098" d="M 505.5 412 L 510 412.5 L 505.5 413 L 505.5 412 Z " /><path fill="rgb(1,138,233)" stroke="rgb(1,138,233)" stroke-width="1" opacity="0.00392156862745098" d="M 135.5 413 L 138 413.5 L 135.5 414 L 135.5 413 Z " /><path fill="rgb(1,138,233)" stroke="rgb(1,138,233)" stroke-width="1" opacity="0.00392156862745098" d="M 459.5 413 L 462 413.5 L 459.5 414 L 459.5 413 Z " /><path fill="rgb(1,138,233)" stroke="rgb(1,138,233)" stroke-width="1" opacity="0.00392156862745098" d="M 473.5 413 L 476 413.5 L 473.5 414 L 473.5 413 Z " /><path fill="rgb(1,138,233)" stroke="rgb(1,138,233)" stroke-width="1" opacity="0.00392156862745098" d="M 490.5 413 L 492 413.5 L 489.5 415 L 490.5 413 Z " /><path fill="rgb(1,138,233)" stroke="rgb(1,138,233)" stroke-width="1" opacity="0.00392156862745098" d="M 514.5 413 L 517 413.5 L 514.5 414 L 514.5 413 Z " /><path fill="rgb(1,138,233)" stroke="rgb(1,138,233)" stroke-width="1" opacity="0.00392156862745098" d="M 91.5 414 L 94 414.5 L 91.5 415 L 91.5 414 Z " /><path fill="rgb(1,138,233)" stroke="rgb(1,138,233)" stroke-width="1" opacity="0.00392156862745098" d="M 194.5 414 L 196.5 417 L 194.5 414 Z " /><path fill="rgb(1,138,233)" stroke="rgb(1,138,233)" stroke-width="1" opacity="0.00392156862745098" d="M 200.5 414 L 202.5 417 L 200.5 414 Z " /><path fill="rgb(1,138,233)" stroke="rgb(1,138,233)" stroke-width="1" opacity="0.00392156862745098" d="M 288.5 414 L 287.5 416 L 288.5 414 Z " /><path fill="rgb(1,138,233)" stroke="rgb(1,138,233)" stroke-width="1" opacity="0.00392156862745098" d="M 448 414 L 452 414.5 L 449 415 L 448.5 421 L 448 414 Z " /><path fill="rgb(1,138,233)" stroke="rgb(1,138,233)" stroke-width="1" opacity="0.00392156862745098" d="M 98.5 415 L 101 415.5 L 98.5 416 L 98.5 415 Z " /><path fill="rgb(1,138,233)" stroke="rgb(1,138,233)" stroke-width="1" opacity="0.00392156862745098" d="M 172.5 415 L 175 415.5 L 172.5 416 L 172.5 415 Z " /><path fill="rgb(1,138,233)" stroke="rgb(1,138,233)" stroke-width="1" opacity="0.00392156862745098" d="M 183.5 415 L 182.5 417 L 183.5 415 Z " /><path fill="rgb(1,138,233)" stroke="rgb(1,138,233)" stroke-width="1" opacity="0.00392156862745098" d="M 539.5 415 L 538.5 417 L 537 416.5 L 539.5 415 Z " /><path fill="rgb(1,138,233)" stroke="rgb(1,138,233)" stroke-width="1" opacity="0.00392156862745098" d="M 851.5 415 L 850.5 417 L 851.5 415 Z " /><path fill="rgb(1,138,233)" stroke="rgb(1,138,233)" stroke-width="1" opacity="0.00392156862745098" d="M 889.5 415 L 878.5 427 L 889.5 415 Z " /><path fill="rgb(1,138,233)" stroke="rgb(1,138,233)" stroke-width="1" opacity="0.00392156862745098" d="M 108.5 416 L 116 416.5 L 108.5 417 L 108.5 416 Z " /><path fill="rgb(1,138,233)" stroke="rgb(1,138,233)" stroke-width="1" opacity="0.00392156862745098" d="M 482.5 416 L 484.5 419 L 482.5 416 Z " /><path fill="rgb(1,138,233)" stroke="rgb(1,138,233)" stroke-width="1" opacity="0.00392156862745098" d="M 493.5 416 L 496 416.5 L 493.5 417 L 493.5 416 Z " /><path fill="rgb(1,138,233)" stroke="rgb(1,138,233)" stroke-width="1" opacity="0.00392156862745098" d="M 165.5 417 L 166.5 419 L 165.5 417 Z " /><path fill="rgb(1,138,233)" stroke="rgb(1,138,233)" stroke-width="1" opacity="0.00392156862745098" d="M 455.5 417 L 458 417.5 L 455.5 418 L 455.5 417 Z " /><path fill="rgb(1,138,233)" stroke="rgb(1,138,233)" stroke-width="1" opacity="0.00392156862745098" d="M 199.5 418 L 200.5 420 L 199.5 418 Z " /><path fill="rgb(1,138,233)" stroke="rgb(1,138,233)" stroke-width="1" opacity="0.00392156862745098" d="M 290.5 418 L 289.5 420 L 290.5 418 Z " /><path fill="rgb(1,138,233)" stroke="rgb(1,138,233)" stroke-width="1" opacity="0.00392156862745098" d="M 478.5 418 L 481.5 422 L 478.5 418 Z " /><path fill="rgb(1,138,233)" stroke="rgb(1,138,233)" stroke-width="1" opacity="0.00392156862745098" d="M 168.5 419 L 172 419.5 L 168.5 420 L 168.5 419 Z " /><path fill="rgb(1,138,233)" stroke="rgb(1,138,233)" stroke-width="1" opacity="0.00392156862745098" d="M 285.5 419 L 284.5 421 L 285.5 419 Z " /><path fill="rgb(1,138,233)" stroke="rgb(1,138,233)" stroke-width="1" opacity="0.00392156862745098" d="M 225.5 421 L 230 421.5 L 225.5 422 L 225.5 421 Z " /><path fill="rgb(1,138,233)" stroke="rgb(1,138,233)" stroke-width="1" opacity="0.00392156862745098" d="M 288.5 421 L 287.5 423 L 288.5 421 Z " /><path fill="rgb(1,138,233)" stroke="rgb(1,138,233)" stroke-width="1" opacity="0.00392156862745098" d="M 240.5 422 L 272 422.5 L 240.5 423 L 240.5 422 Z " /><path fill="rgb(1,138,233)" stroke="rgb(1,138,233)" stroke-width="1" opacity="0.00392156862745098" d="M 212.5 423 L 215 423.5 L 212.5 424 L 212.5 423 Z " /><path fill="rgb(1,138,233)" stroke="rgb(1,138,233)" stroke-width="1" opacity="0.00392156862745098" d="M 482.5 423 L 485 424.5 L 483.5 425 L 482.5 423 Z " /><path fill="rgb(1,138,233)" stroke="rgb(1,138,233)" stroke-width="1" opacity="0.00392156862745098" d="M 219.5 424 L 222 424.5 L 219.5 425 L 219.5 424 Z " /><path fill="rgb(1,138,233)" stroke="rgb(1,138,233)" stroke-width="1" opacity="0.00392156862745098" d="M 286.5 424 L 285.5 426 L 281 425.5 L 286.5 424 Z " /><path fill="rgb(1,138,233)" stroke="rgb(1,138,233)" stroke-width="1" opacity="0.00392156862745098" d="M 231.5 425 L 236 425.5 L 231.5 426 L 231.5 425 Z " /><path fill="rgb(1,138,233)" stroke="rgb(1,138,233)" stroke-width="1" opacity="0.00392156862745098" d="M 564.5 427 Q 570.75 425.75 572 429.5 L 569.5 428 Q 563.5 429.25 564.5 427 Z " /><path fill="rgb(1,138,233)" stroke="rgb(1,138,233)" stroke-width="1" opacity="0.00392156862745098" d="M 876.5 427 L 874.5 430 L 876.5 427 Z " /><path fill="rgb(1,138,233)" stroke="rgb(1,138,233)" stroke-width="1" opacity="0.00392156862745098" d="M 573.5 430 L 575.5 433 L 573.5 430 Z " /><path fill="rgb(1,138,233)" stroke="rgb(1,138,233)" stroke-width="1" opacity="0.00392156862745098" d="M 872.5 430 L 870.5 433 L 872.5 430 Z " /><path fill="rgb(1,138,233)" stroke="rgb(1,138,233)" stroke-width="1" opacity="0.00392156862745098" d="M 867.5 434 L 866.5 436 L 867.5 434 Z " /><path fill="rgb(1,138,233)" stroke="rgb(1,138,233)" stroke-width="1" opacity="0.00392156862745098" d="M 862.5 437 L 861.5 439 L 862.5 437 Z " /><path fill="rgb(1,138,233)" stroke="rgb(1,138,233)" stroke-width="1" opacity="0.00392156862745098" d="M 857.5 440 L 856.5 442 L 857.5 440 Z " /><path fill="rgb(1,138,233)" stroke="rgb(1,138,233)" stroke-width="1" opacity="0.00392156862745098" d="M 9.5 442 L 14 442.5 L 9.5 443 L 9.5 442 Z " /><path fill="rgb(1,138,233)" stroke="rgb(1,138,233)" stroke-width="1" opacity="0.00392156862745098" d="M 18.5 442 L 21 442.5 L 18.5 443 L 18.5 442 Z " /><path fill="rgb(1,138,233)" stroke="rgb(1,138,233)" stroke-width="1" opacity="0.00392156862745098" d="M 65.5 442 L 64.5 444 L 65.5 442 Z " /><path fill="rgb(1,138,233)" stroke="rgb(1,138,233)" stroke-width="1" opacity="0.00392156862745098" d="M 91.5 442 L 92 466 L 105.5 466 L 106 462 L 97 462 L 97 442.5 L 98 442.5 L 98 461 Q 110.15 456.714 107 467 L 91 467 L 91.5 442 Z " /><path fill="rgb(1,138,233)" stroke="rgb(1,138,233)" stroke-width="1" opacity="0.00392156862745098" d="M 133.5 442 L 137 442.5 L 133 443 L 133 465.5 Q 133 466.5 137.5 466 L 137.5 467 Q 132.125 467.625 132 466.5 L 132 443.5 L 133.5 442 Z " /><path fill="rgb(1,138,233)" stroke="rgb(1,138,233)" stroke-width="1" opacity="0.00392156862745098" d="M 141.5 442 L 144 442.5 L 141.5 443 L 141.5 442 Z " /><path fill="rgb(1,138,233)" stroke="rgb(1,138,233)" stroke-width="1" opacity="0.00392156862745098" d="M 205.5 442 L 206.5 444 L 205.5 442 Z " /><path fill="rgb(1,138,233)" stroke="rgb(1,138,233)" stroke-width="1" opacity="0.00392156862745098" d="M 279.5 442 L 278.5 444 L 279.5 442 Z " /><path fill="rgb(1,138,233)" stroke="rgb(1,138,233)" stroke-width="1" opacity="0.00392156862745098" d="M 285.5 442 L 286 443.5 L 284 444.5 L 285.5 442 Z " /><path fill="rgb(1,138,233)" stroke="rgb(1,138,233)" stroke-width="1" opacity="0.00392156862745098" d="M 288.5 442 L 293 442.5 L 288.5 443 L 288.5 442 Z " /><path fill="rgb(1,138,233)" stroke="rgb(1,138,233)" stroke-width="1" opacity="0.00392156862745098" d="M 297.5 442 L 300 442.5 L 297.5 443 L 297.5 442 Z " /><path fill="rgb(1,138,233)" stroke="rgb(1,138,233)" stroke-width="1" opacity="0.00392156862745098" d="M 327.5 442 L 331 442.5 L 327 443 L 327 465.5 Q 327 466.5 331.5 466 L 331.5 467 Q 326.125 467.625 326 466.5 L 326 443.5 L 327.5 442 Z " /><path fill="rgb(1,138,233)" stroke="rgb(1,138,233)" stroke-width="1" opacity="0.00392156862745098" d="M 336.5 442 L 339 442.5 L 336.5 443 L 336.5 442 Z " /><path fill="rgb(1,138,233)" stroke="rgb(1,138,233)" stroke-width="1" opacity="0.00392156862745098" d="M 363.5 442 L 364 448 L 357 447.5 L 363 447 L 363.5 442 Z " /><path fill="rgb(1,138,233)" stroke="rgb(1,138,233)" stroke-width="1" opacity="0.00392156862745098" d="M 371.5 442 L 372 467 L 366 466.5 L 371 466 L 371.5 442 Z " /><path fill="rgb(1,138,233)" stroke="rgb(1,138,233)" stroke-width="1" opacity="0.00392156862745098" d="M 454.5 442 L 455 448 Q 444.2 444.25 446 451 L 454 451.5 L 445 452 Q 444 448.188 446.5 447 Q 456.479 450.333 454.5 442 Z " /><path fill="rgb(1,138,233)" stroke="rgb(1,138,233)" stroke-width="1" opacity="0.00392156862745098" d="M 464.5 442 L 465.5 444 L 464.5 442 Z " /><path fill="rgb(1,138,233)" stroke="rgb(1,138,233)" stroke-width="1" opacity="0.00392156862745098" d="M 472.5 442 L 473 456 L 471 455.5 Q 475.212 452.212 472.5 442 Z " /><path fill="rgb(1,138,233)" stroke="rgb(1,138,233)" stroke-width="1" opacity="0.00392156862745098" d="M 498.5 442 L 499 448 L 492 447.5 L 498 447 L 498.5 442 Z " /><path fill="rgb(1,138,233)" stroke="rgb(1,138,233)" stroke-width="1" opacity="0.00392156862745098" d="M 500.5 442 L 501 466 L 516 466.5 L 500 467 L 500.5 442 Z " /><path fill="rgb(1,138,233)" stroke="rgb(1,138,233)" stroke-width="1" opacity="0.00392156862745098" d="M 515.5 442 L 516 448 Q 505.2 444.25 507 451 L 515 451.5 L 506 452 L 506 447 Q 517.283 451.167 515.5 442 Z " /><path fill="rgb(1,138,233)" stroke="rgb(1,138,233)" stroke-width="1" opacity="0.00392156862745098" d="M 519.5 442 L 524 442.5 L 519.5 443 L 519.5 442 Z " /><path fill="rgb(1,138,233)" stroke="rgb(1,138,233)" stroke-width="1" opacity="0.00392156862745098" d="M 528.5 442 L 531 442.5 L 528.5 443 L 528.5 442 Z " /><path fill="rgb(1,138,233)" stroke="rgb(1,138,233)" stroke-width="1" opacity="0.00392156862745098" d="M 701.5 442 L 704 442.5 L 701.5 443 L 701.5 442 Z " /><path fill="rgb(1,138,233)" stroke="rgb(1,138,233)" stroke-width="1" opacity="0.00392156862745098" d="M 764.5 442 L 767 442.5 L 764.5 443 L 764.5 442 Z " /><path fill="rgb(1,138,233)" stroke="rgb(1,138,233)" stroke-width="1" opacity="0.00392156862745098" d="M 113.5 443 L 110.5 447 L 113.5 443 Z " /><path fill="rgb(1,138,233)" stroke="rgb(1,138,233)" stroke-width="1" opacity="0.00392156862745098" d="M 125.5 443 L 126.5 445 L 125.5 443 Z " /><path fill="rgb(1,138,233)" stroke="rgb(1,138,233)" stroke-width="1" opacity="0.00392156862745098" d="M 424.5 443 L 423.5 445 L 424.5 443 Z " /><path fill="rgb(1,138,233)" stroke="rgb(1,138,233)" stroke-width="1" opacity="0.00392156862745098" d="M 709.5 443 L 712 443.5 L 709.5 444 L 709.5 443 Z " /><path fill="rgb(1,138,233)" stroke="rgb(1,138,233)" stroke-width="1" opacity="0.00392156862745098" d="M 755.5 443 L 759 443.5 L 755.5 444 L 755.5 443 Z " /><path fill="rgb(1,138,233)" stroke="rgb(1,138,233)" stroke-width="1" opacity="0.00392156862745098" d="M 25.5 444 L 28.5 448 L 25.5 444 Z " /><path fill="rgb(1,138,233)" stroke="rgb(1,138,233)" stroke-width="1" opacity="0.00392156862745098" d="M 147.5 444 L 148.5 446 L 147.5 444 Z " /><path fill="rgb(1,138,233)" stroke="rgb(1,138,233)" stroke-width="1" opacity="0.00392156862745098" d="M 723.5 444 L 729 444.5 L 723.5 445 L 723.5 444 Z " /><path fill="rgb(1,138,233)" stroke="rgb(1,138,233)" stroke-width="1" opacity="0.00392156862745098" d="M 730.5 444 L 746 444.5 L 730.5 445 L 730.5 444 Z " /><path fill="rgb(1,138,233)" stroke="rgb(1,138,233)" stroke-width="1" opacity="0.00392156862745098" d="M 39.5 447 L 48 447.5 L 39 448 Q 37.125 454 46.5 451 L 46.5 452 Q 39.75 453.75 38 450.5 L 39.5 447 Z " /><path fill="rgb(1,138,233)" stroke="rgb(1,138,233)" stroke-width="1" opacity="0.00392156862745098" d="M 79.5 447 L 88 447.5 L 79.5 448 L 79.5 447 Z " /><path fill="rgb(1,138,233)" stroke="rgb(1,138,233)" stroke-width="1" opacity="0.00392156862745098" d="M 117.5 447 L 115.5 450 L 117.5 447 Z " /><path fill="rgb(1,138,233)" stroke="rgb(1,138,233)" stroke-width="1" opacity="0.00392156862745098" d="M 121.5 447 L 123.5 450 L 121.5 447 Z " /><path fill="rgb(1,138,233)" stroke="rgb(1,138,233)" stroke-width="1" opacity="0.00392156862745098" d="M 142.5 447 L 143.5 449 L 142.5 447 Z " /><path fill="rgb(1,138,233)" stroke="rgb(1,138,233)" stroke-width="1" opacity="0.00392156862745098" d="M 187.5 447 L 196 447.5 L 187.5 448 L 187.5 447 Z " /><path fill="rgb(1,138,233)" stroke="rgb(1,138,233)" stroke-width="1" opacity="0.00392156862745098" d="M 221.5 447 L 228 447 L 228 465.5 L 233 466 L 233 447 L 239.5 447 L 239.5 448 Q 234.125 447.375 234 448.5 L 234 467 L 227 467 L 227 448.5 Q 226.875 447.375 221.5 448 L 221.5 447 Z " /><path fill="rgb(1,138,233)" stroke="rgb(1,138,233)" stroke-width="1" opacity="0.00392156862745098" d="M 255.5 447 L 264 447.5 L 255.5 448 L 255.5 447 Z " /><path fill="rgb(1,138,233)" stroke="rgb(1,138,233)" stroke-width="1" opacity="0.00392156862745098" d="M 314.5 447 L 323 447.5 L 314.5 448 L 314.5 447 Z " /><path fill="rgb(1,138,233)" stroke="rgb(1,138,233)" stroke-width="1" opacity="0.00392156862745098" d="M 336.5 447 L 337.5 449 L 336.5 447 Z " /><path fill="rgb(1,138,233)" stroke="rgb(1,138,233)" stroke-width="1" opacity="0.00392156862745098" d="M 345.5 447 L 351 447.5 L 345.5 448 L 345.5 447 Z " /><path fill="rgb(1,138,233)" stroke="rgb(1,138,233)" stroke-width="1" opacity="0.00392156862745098" d="M 400.5 447 L 409 447.5 L 400.5 448 L 400.5 447 Z " /><path fill="rgb(1,138,233)" stroke="rgb(1,138,233)" stroke-width="1" opacity="0.00392156862745098" d="M 428.5 447 L 430 447.5 L 427.5 449 L 428.5 447 Z " /><path fill="rgb(1,138,233)" stroke="rgb(1,138,233)" stroke-width="1" opacity="0.00392156862745098" d="M 480.5 447 L 486 447.5 L 480.5 448 L 480.5 447 Z " /><path fill="rgb(1,138,233)" stroke="rgb(1,138,233)" stroke-width="1" opacity="0.00392156862745098" d="M 21.5 448 L 22.5 450 L 21.5 448 Z " /><path fill="rgb(1,138,233)" stroke="rgb(1,138,233)" stroke-width="1" opacity="0.00392156862745098" d="M 149.5 448 L 150 451.5 L 149 451.5 L 149.5 448 Z " /><path fill="rgb(1,138,233)" stroke="rgb(1,138,233)" stroke-width="1" opacity="0.00392156862745098" d="M 268.5 448 L 269.5 450 L 268.5 448 Z " /><path fill="rgb(1,138,233)" stroke="rgb(1,138,233)" stroke-width="1" opacity="0.00392156862745098" d="M 276.5 448 L 275.5 450 L 276.5 448 Z " /><path fill="rgb(1,138,233)" stroke="rgb(1,138,233)" stroke-width="1" opacity="0.00392156862745098" d="M 468.5 449 L 469.5 451 L 468.5 449 Z " /><path fill="rgb(1,138,233)" stroke="rgb(1,138,233)" stroke-width="1" opacity="0.00392156862745098" d="M 599.5 449 L 600.5 451 L 599.5 449 Z " /><path fill="rgb(1,138,233)" stroke="rgb(1,138,233)" stroke-width="1" opacity="0.00392156862745098" d="M 204.5 450 L 206 452.5 L 204 451.5 L 204.5 450 Z " /><path fill="rgb(1,138,233)" stroke="rgb(1,138,233)" stroke-width="1" opacity="0.00392156862745098" d="M 79.5 451 Q 86.25 449.25 88 452.5 L 87.5 457 L 87 452 Q 78.562 454 79.5 451 Z " /><path fill="rgb(1,138,233)" stroke="rgb(1,138,233)" stroke-width="1" opacity="0.00392156862745098" d="M 114.5 451 L 115 453.5 L 114 453.5 L 114.5 451 Z " /><path fill="rgb(1,138,233)" stroke="rgb(1,138,233)" stroke-width="1" opacity="0.00392156862745098" d="M 143.5 451 L 142.5 453 L 143.5 451 Z " /><path fill="rgb(1,138,233)" stroke="rgb(1,138,233)" stroke-width="1" opacity="0.00392156862745098" d="M 187.5 451 Q 194.25 449.25 196 452.5 L 195.5 457 L 195 452 Q 186.562 454 187.5 451 Z " /><path fill="rgb(1,138,233)" stroke="rgb(1,138,233)" stroke-width="1" opacity="0.00392156862745098" d="M 255.5 451 L 263 451.5 L 255.5 452 L 255.5 451 Z " /><path fill="rgb(1,138,233)" stroke="rgb(1,138,233)" stroke-width="1" opacity="0.00392156862745098" d="M 314.5 451 Q 325.833 446.875 323 456.5 L 322 456.5 Q 324.344 448.4 314.5 452 L 314.5 451 Z " /><path fill="rgb(1,138,233)" stroke="rgb(1,138,233)" stroke-width="1" opacity="0.00392156862745098" d="M 400.5 451 Q 411.833 446.875 409 456.5 L 408 456.5 Q 410.344 448.4 400.5 452 L 400.5 451 Z " /><path fill="rgb(1,138,233)" stroke="rgb(1,138,233)" stroke-width="1" opacity="0.00392156862745098" d="M 529.5 451 L 528.5 453 L 527 452.5 L 529.5 451 Z " /><path fill="rgb(1,138,233)" stroke="rgb(1,138,233)" stroke-width="1" opacity="0.00392156862745098" d="M 602.5 451 L 603.5 453 L 602.5 451 Z " /><path fill="rgb(1,138,233)" stroke="rgb(1,138,233)" stroke-width="1" opacity="0.00392156862745098" d="M 23.5 452 L 24 456.5 L 23 456.5 L 23.5 452 Z " /><path fill="rgb(1,138,233)" stroke="rgb(1,138,233)" stroke-width="1" opacity="0.00392156862745098" d="M 177.5 452 L 178 457.5 L 177 457.5 L 177.5 452 Z " /><path fill="rgb(1,138,233)" stroke="rgb(1,138,233)" stroke-width="1" opacity="0.00392156862745098" d="M 375.5 452 L 378.5 456 L 375.5 452 Z " /><path fill="rgb(1,138,233)" stroke="rgb(1,138,233)" stroke-width="1" opacity="0.00392156862745098" d="M 463 452 L 465 452.5 L 464 453.5 L 464 467 L 458 466.5 L 463 466 L 463 452 Z " /><path fill="rgb(1,138,233)" stroke="rgb(1,138,233)" stroke-width="1" opacity="0.00392156862745098" d="M 535.5 452 L 532.5 456 L 535.5 452 Z " /><path fill="rgb(1,138,233)" stroke="rgb(1,138,233)" stroke-width="1" opacity="0.00392156862745098" d="M 138.5 453 L 141 453.5 L 138.5 454 L 138.5 453 Z " /><path fill="rgb(1,138,233)" stroke="rgb(1,138,233)" stroke-width="1" opacity="0.00392156862745098" d="M 152.5 453 L 153 457.5 L 152 457.5 L 152.5 453 Z " /><path fill="rgb(1,138,233)" stroke="rgb(1,138,233)" stroke-width="1" opacity="0.00392156862745098" d="M 294.5 453 L 297 453.5 L 294.5 454 L 294.5 453 Z " /><path fill="rgb(1,138,233)" stroke="rgb(1,138,233)" stroke-width="1" opacity="0.00392156862745098" d="M 424.5 453 L 425 456.5 L 424 456.5 L 424.5 453 Z " /><path fill="rgb(1,138,233)" stroke="rgb(1,138,233)" stroke-width="1" opacity="0.00392156862745098" d="M 605.5 453 L 606.5 455 L 605.5 453 Z " /><path fill="rgb(1,138,233)" stroke="rgb(1,138,233)" stroke-width="1" opacity="0.00392156862745098" d="M 148.5 454 L 146.5 457 L 148.5 454 Z " /><path fill="rgb(1,138,233)" stroke="rgb(1,138,233)" stroke-width="1" opacity="0.00392156862745098" d="M 340.5 454 L 342 456.5 L 340 455.5 L 340.5 454 Z " /><path fill="rgb(1,138,233)" stroke="rgb(1,138,233)" stroke-width="1" opacity="0.00392156862745098" d="M 114.5 455 L 115 457.5 L 114 457.5 L 114.5 455 Z " /><path fill="rgb(1,138,233)" stroke="rgb(1,138,233)" stroke-width="1" opacity="0.00392156862745098" d="M 164 455 L 166 455.5 L 164 456.5 L 164 455 Z " /><path fill="rgb(1,138,233)" stroke="rgb(1,138,233)" stroke-width="1" opacity="0.00392156862745098" d="M 271.5 455 L 270.5 457 L 271.5 455 Z " /><path fill="rgb(1,138,233)" stroke="rgb(1,138,233)" stroke-width="1" opacity="0.00392156862745098" d="M 608.5 455 L 609.5 457 L 608.5 455 Z " /><path fill="rgb(1,138,233)" stroke="rgb(1,138,233)" stroke-width="1" opacity="0.00392156862745098" d="M 59.5 456 L 61 458.5 L 59 457.5 L 59.5 456 Z " /><path fill="rgb(1,138,233)" stroke="rgb(1,138,233)" stroke-width="1" opacity="0.00392156862745098" d="M 38.5 457 L 39 461 L 48 461.5 L 39.5 462 Q 36.813 460.813 38.5 457 Z " /><path fill="rgb(1,138,233)" stroke="rgb(1,138,233)" stroke-width="1" opacity="0.00392156862745098" d="M 332.5 457 L 335 457.5 L 332.5 458 L 332.5 457 Z " /><path fill="rgb(1,138,233)" stroke="rgb(1,138,233)" stroke-width="1" opacity="0.00392156862745098" d="M 445.5 457 L 446 461 L 455 461.5 L 446.5 462 Q 443.813 460.813 445.5 457 Z " /><path fill="rgb(1,138,233)" stroke="rgb(1,138,233)" stroke-width="1" opacity="0.00392156862745098" d="M 506.5 457 L 507 461 L 516 461.5 L 506 462 L 506.5 457 Z " /><path fill="rgb(1,138,233)" stroke="rgb(1,138,233)" stroke-width="1" opacity="0.00392156862745098" d="M 525.5 457 L 529 458.5 L 527.5 458 Q 524.5 458.5 525.5 457 Z " /><path fill="rgb(1,138,233)" stroke="rgb(1,138,233)" stroke-width="1" opacity="0.00392156862745098" d="M 611.5 457 L 612.5 459 L 611.5 457 Z " /><path fill="rgb(1,138,233)" stroke="rgb(1,138,233)" stroke-width="1" opacity="0.00392156862745098" d="M 281.5 458 L 282.5 460 L 281.5 458 Z " /><path fill="rgb(1,138,233)" stroke="rgb(1,138,233)" stroke-width="1" opacity="0.00392156862745098" d="M 115.5 459 L 117.5 462 L 115.5 459 Z " /><path fill="rgb(1,138,233)" stroke="rgb(1,138,233)" stroke-width="1" opacity="0.00392156862745098" d="M 123.5 459 L 121.5 462 L 123.5 459 Z " /><path fill="rgb(1,138,233)" stroke="rgb(1,138,233)" stroke-width="1" opacity="0.00392156862745098" d="M 614.5 459 L 615.5 461 L 614.5 459 Z " /><path fill="rgb(1,138,233)" stroke="rgb(1,138,233)" stroke-width="1" opacity="0.00392156862745098" d="M 20.5 460 L 19.5 462 L 18 461.5 L 20.5 460 Z " /><path fill="rgb(1,138,233)" stroke="rgb(1,138,233)" stroke-width="1" opacity="0.00392156862745098" d="M 209.5 460 L 210.5 462 L 209.5 460 Z " /><path fill="rgb(1,138,233)" stroke="rgb(1,138,233)" stroke-width="1" opacity="0.00392156862745098" d="M 375 460 L 377 460.5 L 375 461.5 L 375 460 Z " /><path fill="rgb(1,138,233)" stroke="rgb(1,138,233)" stroke-width="1" opacity="0.00392156862745098" d="M 427.5 460 L 430 461.5 L 428.5 462 L 427.5 460 Z " /><path fill="rgb(1,138,233)" stroke="rgb(1,138,233)" stroke-width="1" opacity="0.00392156862745098" d="M 79.5 461 Q 87 459 89 462.5 Q 89.5 467 88.5 467 L 73.5 467 L 73.5 466 L 87.5 466 L 88 462 Q 78.556 464.25 79.5 461 Z " /><path fill="rgb(1,138,233)" stroke="rgb(1,138,233)" stroke-width="1" opacity="0.00392156862745098" d="M 157.5 461 L 158 467 L 152 466.5 L 157 466 L 157.5 461 Z " /><path fill="rgb(1,138,233)" stroke="rgb(1,138,233)" stroke-width="1" opacity="0.00392156862745098" d="M 187.5 461 Q 200.325 456.714 197 467 L 181 466.5 L 196 466 Q 198.361 458.4 187.5 462 L 187.5 461 Z " /><path fill="rgb(1,138,233)" stroke="rgb(1,138,233)" stroke-width="1" opacity="0.00392156862745098" d="M 255.5 461 L 264 461.5 L 255.5 462 L 255.5 461 Z " /><path fill="rgb(1,138,233)" stroke="rgb(1,138,233)" stroke-width="1" opacity="0.00392156862745098" d="M 314.5 461 Q 327.325 456.714 324 467 L 308 466.5 L 323 466 Q 325.361 458.4 314.5 462 L 314.5 461 Z " /><path fill="rgb(1,138,233)" stroke="rgb(1,138,233)" stroke-width="1" opacity="0.00392156862745098" d="M 400.5 461 Q 413.325 456.714 410 467 L 394 466.5 L 409 466 Q 411.361 458.4 400.5 462 L 400.5 461 Z " /><path fill="rgb(1,138,233)" stroke="rgb(1,138,233)" stroke-width="1" opacity="0.00392156862745098" d="M 27.5 462 L 26.5 464 L 27.5 462 Z " /><path fill="rgb(1,138,233)" stroke="rgb(1,138,233)" stroke-width="1" opacity="0.00392156862745098" d="M 128.5 462 L 126.5 465 L 128.5 462 Z " /><path fill="rgb(1,138,233)" stroke="rgb(1,138,233)" stroke-width="1" opacity="0.00392156862745098" d="M 390.5 462 L 389.5 464 L 390.5 462 Z " /><path fill="rgb(1,138,233)" stroke="rgb(1,138,233)" stroke-width="1" opacity="0.00392156862745098" d="M 420.5 462 L 423.5 466 L 420.5 462 Z " /><path fill="rgb(1,138,233)" stroke="rgb(1,138,233)" stroke-width="1" opacity="0.00392156862745098" d="M 112.5 464 L 113.5 466 L 112.5 464 Z " /><path fill="rgb(1,138,233)" stroke="rgb(1,138,233)" stroke-width="1" opacity="0.00392156862745098" d="M 63.5 465 L 64 467 L 56 466.5 L 63.5 465 Z " /><path fill="rgb(1,138,233)" stroke="rgb(1,138,233)" stroke-width="1" opacity="0.00392156862745098" d="M 212.5 465 L 219 466.5 L 213.5 467 L 212.5 465 Z " /><path fill="rgb(1,138,233)" stroke="rgb(1,138,233)" stroke-width="1" opacity="0.00392156862745098" d="M 265.5 465 Q 266.75 467.25 271.5 466 L 273 465.5 Q 271.143 468.75 265 467 L 265.5 465 Z " /><path fill="rgb(1,138,233)" stroke="rgb(1,138,233)" stroke-width="1" opacity="0.00392156862745098" d="M 285.5 465 L 286 467 L 279 466.5 L 285.5 465 Z " /><path fill="rgb(1,138,233)" stroke="rgb(1,138,233)" stroke-width="1" opacity="0.00392156862745098" d="M 344.5 465 L 345 467 L 338 466.5 L 344.5 465 Z " /><path fill="rgb(1,138,233)" stroke="rgb(1,138,233)" stroke-width="1" opacity="0.00392156862745098" d="M 17.5 466 L 20 466.5 L 17.5 467 L 17.5 466 Z " /><path fill="rgb(1,138,233)" stroke="rgb(1,138,233)" stroke-width="1" opacity="0.00392156862745098" d="M 33.5 466 L 48 466.5 L 33.5 467 L 33.5 466 Z " /><path fill="rgb(1,138,233)" stroke="rgb(1,138,233)" stroke-width="1" opacity="0.00392156862745098" d="M 172.5 466 L 178 466.5 L 172.5 467 L 172.5 466 Z " /><path fill="rgb(1,138,233)" stroke="rgb(1,138,233)" stroke-width="1" opacity="0.00392156862745098" d="M 199.5 466 L 205 466.5 L 199.5 467 L 199.5 466 Z " /><path fill="rgb(1,138,233)" stroke="rgb(1,138,233)" stroke-width="1" opacity="0.00392156862745098" d="M 249.5 466 L 264 466.5 L 249.5 467 L 249.5 466 Z " /><path fill="rgb(1,138,233)" stroke="rgb(1,138,233)" stroke-width="1" opacity="0.00392156862745098" d="M 288.5 466 L 294 466.5 L 288.5 467 L 288.5 466 Z " /><path fill="rgb(1,138,233)" stroke="rgb(1,138,233)" stroke-width="1" opacity="0.00392156862745098" d="M 351.5 466 L 357 466.5 L 351.5 467 L 351.5 466 Z " /><path fill="rgb(1,138,233)" stroke="rgb(1,138,233)" stroke-width="1" opacity="0.00392156862745098" d="M 440.5 466 L 455 466.5 L 440.5 467 L 440.5 466 Z " /><path fill="rgb(1,138,233)" stroke="rgb(1,138,233)" stroke-width="1" opacity="0.00392156862745098" d="M 471.5 466 L 478 466.5 L 471.5 467 L 471.5 466 Z " /><path fill="rgb(1,138,233)" stroke="rgb(1,138,233)" stroke-width="1" opacity="0.00392156862745098" d="M 486.5 466 L 492 466.5 L 486.5 467 L 486.5 466 Z " /><path fill="rgb(1,138,233)" stroke="rgb(1,138,233)" stroke-width="1" opacity="0.00392156862745098" d="M 519.5 466 L 525 466.5 L 519.5 467 L 519.5 466 Z " /><path fill="rgb(1,138,233)" stroke="rgb(1,138,233)" stroke-width="1" opacity="0.00392156862745098" d="M 531.5 466 L 537 466.5 L 531.5 467 L 531.5 466 Z " /><path fill="rgb(1,138,233)" stroke="rgb(1,138,233)" stroke-width="1" opacity="0.00392156862745098" d="M 737.5 477 L 740 477.5 L 737.5 478 L 737.5 477 Z " /><path fill="rgb(1,138,233)" stroke="rgb(1,138,233)" stroke-width="1" opacity="0.00392156862745098" d="M 687.5 479 L 690 479.5 L 687.5 480 L 687.5 479 Z " /><path fill="rgb(1,138,233)" stroke="rgb(1,138,233)" stroke-width="1" opacity="0.00392156862745098" d="M 722.5 479 L 726 479.5 L 722.5 480 L 722.5 479 Z " /><path fill="rgb(1,138,233)" stroke="rgb(1,138,233)" stroke-width="1" opacity="0.00392156862745098" d="M 695.5 480 L 698 480.5 L 695.5 481 L 695.5 480 Z " /><path fill="rgb(1,138,233)" stroke="rgb(1,138,233)" stroke-width="1" opacity="0.00392156862745098" d="M 711.5 480 L 715 480.5 L 711.5 481 L 711.5 480 Z " /><path fill="rgb(58,153,212)" stroke="rgb(58,153,212)" stroke-width="1" opacity="0.9607843137254902" d="M 656.5 124 Q 663.375 123.125 665 127.5 Q 667.833 152.167 667 180.5 Q 665.375 187.375 659.5 190 Q 625.693 209.693 599 236.5 Q 579.683 256.183 567 282.5 Q 557.433 298.933 560 327.5 Q 563.044 344.456 571 356.5 Q 585.929 381.071 606.5 400 Q 652.737 445.763 745.5 445 Q 783.056 442.556 813.5 433 Q 849.719 420.219 878.5 400 Q 884.247 396.747 893.5 397 L 898 399.5 L 900 404.5 L 896.5 410 Q 826.785 474.785 698.5 481 Q 657.568 477.432 625.5 465 Q 594.714 448.786 569.5 427 Q 559.909 428.091 556.5 423 Q 555 425.5 549.5 424 Q 527.189 414.311 493.5 416 L 487 420.5 L 486 424 L 482 422.5 L 478.5 418 Q 470 414.5 455.5 417 L 452 418 Q 455.75 427.333 449.5 426 Q 417.937 407.063 369.5 405 Q 363.75 406.25 361 410.5 Q 361.536 416.036 358.5 418 Q 333.88 409.62 301.5 409 Q 294.875 409.875 292 414.5 L 285.5 425 L 280.5 426 L 236.5 426 L 235.5 425 Q 218.474 426.026 206.5 422 Q 197.754 419.246 192.5 413 L 186.5 413 Q 181.247 420.247 167.5 419 Q 163.125 416.875 164 411 Q 140.194 409.71 122.5 416 L 101.5 416 Q 89.64 411.36 72.5 412 L 71.5 411 L 16.5 411 L 0 408 Q -1.8 403.125 4.5 405 Q 25.083 410.917 54.5 408 L 57.5 407 Q 82.879 407.621 103.5 413 L 120.5 413 Q 139.094 406.594 165.5 408 Q 168.813 410.281 168 416 L 178.5 415 Q 182.5 410 190.5 409 Q 198.6 416.9 211.5 420 Q 238.547 424.453 271.5 423 Q 282.558 425.058 286 419.5 L 291 410 Q 297.577 403.846 313.5 406 L 357 414 L 360 406 Q 367.885 399.231 386.5 402 Q 421.25 408.5 449 421 Q 446.083 413.714 451.5 415 Q 460.231 412.231 472.5 413 Q 480.75 413.75 484.5 419 L 486.5 416 Q 492.679 411.179 504.5 412 Q 520.645 412.355 532.5 417 L 538.5 417 Q 544.107 414.607 544 406.5 Q 511.303 369.697 509 302.5 Q 516.074 209.574 570.5 164 Q 604.761 135.261 656.5 124 Z " /><path fill="rgb(58,153,212)" stroke="rgb(58,153,212)" stroke-width="1" opacity="0.9607843137254902" d="M 828.5 144 Q 858.07 141.43 869 157.5 Q 874.833 163.167 873 176.5 Q 869.864 186.864 862.5 193 Q 850.494 203.994 828.5 205 Q 807.741 204.759 798 193.5 Q 791.167 187.333 793 172.5 Q 796.656 159.656 806.5 153 Q 815.351 146.351 828.5 144 Z " /><path fill="rgb(58,153,212)" stroke="rgb(58,153,212)" stroke-width="1" opacity="0.9607843137254902" d="M 100.5 164 L 161.5 165 L 181.5 169 Q 207.786 177.214 223 196.5 Q 246.832 226.668 245 282.5 Q 237.786 333.786 205.5 360 Q 186.262 377.762 154.5 383 Q 89.488 389.488 14.5 386 Q 8.083 385.917 6 381.5 Q 2.833 376.667 5 366.5 Q 14.034 281.534 14 187.5 Q 12.933 174.362 17 168 Q 22.149 164.577 32.5 165 L 33.5 166 L 89.5 166 L 100.5 164 Z M 103 211 L 89 214 Q 82 217 82 227 Q 83 260 79 289 L 79 333 L 80 335 L 96 336 L 97 337 Q 132 340 149 323 Q 170 308 171 274 Q 172 246 161 230 Q 145 207 103 211 Z " /><path fill="rgb(58,153,212)" stroke="rgb(58,153,212)" stroke-width="1" opacity="0.9607843137254902" d="M 297.5 165 Q 306.75 162.25 309.5 166 L 408.5 166 L 409.5 165 L 458.5 165 Q 465.991 165.295 470 168 Q 476.167 174.806 473 192.5 Q 475.276 208.776 466.5 214 L 461.5 215 L 371.5 215 L 369.5 215 Q 359.425 213.425 357 219.5 Q 353.875 226.875 356 239.5 L 355 241.5 Q 355.25 246.25 358.5 248 L 360.5 249 L 443.5 249 L 451 254.5 L 452 269.5 Q 452.995 286.995 444.5 295 L 430.5 298 L 367.5 299 Q 366.25 296.75 361.5 298 L 353 300 L 351 304.5 L 350 331.5 Q 351.95 335.55 357.5 336 L 383.5 336 L 384.5 335 L 459.5 334 L 464 337.5 Q 467.333 342.667 465 353.5 Q 465.51 373.51 455.5 383 Q 447.958 385.958 437.5 386 L 352.5 386 L 351.5 385 L 321.5 385 L 320.5 386 L 286.5 386 Q 279.028 385.472 276 380.5 Q 273.444 376.056 274 368.5 Q 285.529 280.029 286 180.5 Q 286.712 172.254 290 168 L 297.5 165 Z " /><path fill="rgb(58,153,212)" stroke="rgb(58,153,212)" stroke-width="1" opacity="0.9607843137254902" d="M 943.5 176 L 950 176.5 Q 917.32 214.32 894 261.5 Q 880.85 286.85 882 326.5 L 883 327.5 L 884 341.5 L 881.5 345 L 871.5 344 L 807.5 318 Q 791.908 311.592 782 299.5 Q 760.711 271.289 762 220.5 L 764.5 217 L 773.5 216 Q 792.677 224.323 822.5 222 Q 892.415 208.415 943.5 176 Z " /><path fill="rgb(58,153,212)" stroke="rgb(58,153,212)" stroke-width="1" opacity="0.9607843137254902" d="M 14.5 442 Q 25.396 441.604 29 448.5 L 30 456.5 Q 28.75 462.25 24.5 465 L 11.5 467 L 9 466 L 9 443.5 Q 9 442.5 13.5 443 L 14.5 442 Z M 15 447 L 15 462 Q 15 462 20 462 L 24 457 L 23 450 Q 21 446 15 447 Z " /><path fill="rgb(58,153,212)" stroke="rgb(58,153,212)" stroke-width="1" opacity="0.9607843137254902" d="M 34.5 442 Q 45 439 48 443.5 Q 49.889 450.938 39.5 447 L 38 450.5 Q 40.094 454 47 452 Q 48 455.813 45.5 457 Q 36.125 453.5 38 460.5 Q 40.333 464.25 48 462 L 47.5 466 L 33 466 L 33 443.5 L 34.5 442 Z " /><path fill="rgb(58,153,212)" stroke="rgb(58,153,212)" stroke-width="1" opacity="0.9607843137254902" d="M 50.5 442 Q 55 441 56 443.5 Q 55.015 454.485 60.5 459 Q 59.986 446.986 66.5 442 Q 70.25 441.25 71 443.5 L 62.5 466 Q 54.607 468.917 56 463.5 L 49 443.5 L 50.5 442 Z " /><path fill="rgb(58,153,212)" stroke="rgb(58,153,212)" stroke-width="1" opacity="0.9607843137254902" d="M 74.5 442 Q 85 439 88 443.5 L 88 447 L 79 447 L 79 452 Q 89.667 448.25 87 457 Q 76.333 453.25 79 462 Q 90.25 458 88 466 L 73 466 L 73 443.5 L 74.5 442 Z " /><path fill="rgb(58,153,212)" stroke="rgb(58,153,212)" stroke-width="1" opacity="0.9607843137254902" d="M 92 442 L 97 442.5 L 97 462 Q 108.25 458 106 466 L 92 466 L 92 442 Z " /><path fill="rgb(58,153,212)" stroke="rgb(58,153,212)" stroke-width="1" opacity="0.9607843137254902" d="M 117.5 442 Q 125.472 441.167 128 445 L 131 455.5 Q 129.875 462.875 124.5 466 L 116.5 467 L 111 464 Q 107.455 460.636 108 452.5 Q 109.536 446.036 114.5 443 L 117.5 442 Z M 118 447 L 114 452 L 115 460 Q 116 463 122 462 L 125 457 L 124 450 Q 123 446 118 447 Z " /><path fill="rgb(58,153,212)" stroke="rgb(58,153,212)" stroke-width="1" opacity="0.9607843137254902" d="M 137.5 442 Q 145.75 441.75 149 446.5 Q 150.75 455.25 145.5 457 L 138 458 Q 141.75 468.667 133 466 L 133 443.5 L 136.5 443 L 137.5 442 Z M 138 447 L 138 454 L 143 453 Q 145 452 144 449 Q 143 446 138 447 Z " /><path fill="rgb(58,153,212)" stroke="rgb(58,153,212)" stroke-width="1" opacity="0.9607843137254902" d="M 154.5 442 Q 159.75 440.75 161 443.5 L 164.5 457 L 170.5 442 Q 175.75 440.75 177 443.5 Q 176.3 456.55 178 466 L 172 466 L 172 450.5 L 171 450.5 L 167 466 Q 160.75 468.5 162 463.5 L 158.5 451 L 157 466 Q 148.667 468.813 152 458.5 Q 156.5 455 153 443.5 L 154.5 442 Z " /><path fill="rgb(58,153,212)" stroke="rgb(58,153,212)" stroke-width="1" opacity="0.9607843137254902" d="M 182.5 442 Q 193 439 196 443.5 L 196 447 L 187 447 L 187 452 Q 197.667 448.25 195 457 Q 184.333 453.25 187 462 Q 198.25 458 196 466 L 181 466 L 181 443.5 L 182.5 442 Z " /><path fill="rgb(58,153,212)" stroke="rgb(58,153,212)" stroke-width="1" opacity="0.9607843137254902" d="M 200.5 442 Q 207 441 208 445.5 L 213.5 457 L 214 442 Q 217.812 441 219 443.5 L 219 465.5 Q 218.875 466.625 213.5 466 L 205.5 452 L 205 466 Q 199.333 466.75 199 465.5 L 199 443.5 L 200.5 442 Z " /><path fill="rgb(58,153,212)" stroke="rgb(58,153,212)" stroke-width="1" opacity="0.9607843137254902" d="M 222.5 442 L 238.5 442 L 240 443.5 Q 241.75 450.5 233 447 L 233 465.5 L 228 466 L 228 447.5 Q 227.554 446.125 221 447 L 221 443.5 L 222.5 442 Z " /><path fill="rgb(58,153,212)" stroke="rgb(58,153,212)" stroke-width="1" opacity="0.9607843137254902" d="M 250.5 442 Q 261 439 264 443.5 L 264 447 L 255 447 L 255 452 Q 264.778 448.063 263 455.5 Q 261.143 458.75 255 457 L 255 462 Q 266.25 458 264 466 L 249 466 L 249 443.5 L 250.5 442 Z " /><path fill="rgb(58,153,212)" stroke="rgb(58,153,212)" stroke-width="1" opacity="0.9607843137254902" d="M 267.5 442 Q 272 441 273 443.5 L 275.5 450 L 280.5 442 Q 285.9 440.125 285 443.5 L 279 454.5 L 285 466 Q 278.625 467.5 279 464.5 L 275.5 458 L 271.5 466 Q 265.417 467.25 266 464.5 L 272 453.5 L 266 443.5 L 267.5 442 Z " /><path fill="rgb(58,153,212)" stroke="rgb(58,153,212)" stroke-width="1" opacity="0.9607843137254902" d="M 293.5 442 Q 300.792 441.708 304 445.5 L 305 452.5 L 301.5 457 L 294 458 Q 297.857 469.111 288 466 L 288 443.5 Q 288 442.5 292.5 443 L 293.5 442 Z M 294 447 L 294 454 L 299 453 L 300 450 Q 299 446 294 447 Z " /><path fill="rgb(58,153,212)" stroke="rgb(58,153,212)" stroke-width="1" opacity="0.9607843137254902" d="M 309.5 442 Q 320 439 323 443.5 L 323 447 L 314 447 L 314 452 Q 324.667 448.25 322 457 Q 311.333 453.25 314 462 Q 325.25 458 323 466 L 308 466 L 308 443.5 L 309.5 442 Z " /><path fill="rgb(58,153,212)" stroke="rgb(58,153,212)" stroke-width="1" opacity="0.9607843137254902" d="M 331.5 442 L 342 444 L 344 449.5 L 341.5 454 Q 339.25 453.25 340 455.5 Q 344.277 458.942 344 466 Q 336.286 469.063 338 462.5 L 334.5 457 Q 329.188 456.174 332 466 L 327 466 L 327 443.5 L 330.5 443 L 331.5 442 Z M 332 447 Q 329 455 336 453 Q 338 453 338 449 Q 337 446 332 447 Z " /><path fill="rgb(58,153,212)" stroke="rgb(58,153,212)" stroke-width="1" opacity="0.9607843137254902" d="M 346.5 442 L 362.5 442 L 363 447 L 357 447 L 357 465.5 Q 356.667 466.75 351 466 L 351 447.5 Q 343.5 450.375 345 443.5 L 346.5 442 Z " /><path fill="rgb(58,153,212)" stroke="rgb(58,153,212)" stroke-width="1" opacity="0.9607843137254902" d="M 367.5 442 L 371 442.5 L 371 466 L 366 465.5 L 366 443.5 L 367.5 442 Z " /><path fill="rgb(58,153,212)" stroke="rgb(58,153,212)" stroke-width="1" opacity="0.9607843137254902" d="M 382.5 442 L 390 443 L 389 448 L 382.5 447 L 381 449.5 L 390 455.5 L 391 461.5 L 389 465 Q 386.125 467.5 379.5 467 L 375 466 Q 374 462.187 376.5 461 L 383.5 462 L 385 458 Q 378.406 456.875 375 451.5 Q 374.167 445.667 377.5 444 L 382.5 442 Z " /><path fill="rgb(58,153,212)" stroke="rgb(58,153,212)" stroke-width="1" opacity="0.9607843137254902" d="M 395.5 442 Q 406 439 409 443.5 L 409 447 L 400 447 L 400 452 Q 410.667 448.25 408 457 Q 397.333 453.25 400 462 Q 411.25 458 409 466 L 394 466 L 394 443.5 L 395.5 442 Z " /><path fill="rgb(58,153,212)" stroke="rgb(58,153,212)" stroke-width="1" opacity="0.9607843137254902" d="M 429.5 442 Q 434.938 441.375 437 443 L 435.5 448 Q 434 445.5 428.5 447 Q 423.75 449.25 424 456.5 L 428.5 462 Q 433.938 462.625 436 461 L 437 466 L 427.5 467 L 420 461.5 L 418 453.5 Q 418.625 447.625 422.5 445 L 429.5 442 Z " /><path fill="rgb(58,153,212)" stroke="rgb(58,153,212)" stroke-width="1" opacity="0.9607843137254902" d="M 441.5 442 L 454 442 L 454 447 Q 447.094 445 445 448.5 L 445 452 L 454 452 L 454 455.5 Q 451.906 459 445 457 Q 444 460.813 446.5 462 Q 457.361 458.4 455 466 L 440 466 L 440 443.5 L 441.5 442 Z " /><path fill="rgb(58,153,212)" stroke="rgb(58,153,212)" stroke-width="1" opacity="0.9607843137254902" d="M 459.5 442 Q 465 441 466 444.5 L 472.5 458 L 473 442 Q 476.813 441 478 443.5 L 478 465.5 Q 477.554 466.875 471 466 L 463.5 450 L 463 466 L 458 465.5 L 458 443.5 L 459.5 442 Z " /><path fill="rgb(58,153,212)" stroke="rgb(58,153,212)" stroke-width="1" opacity="0.9607843137254902" d="M 481.5 442 L 497.5 442 L 498 447 L 492 447 L 492 465.5 Q 491.667 466.75 486 466 L 486 447.5 Q 478.5 450.375 480 443.5 L 481.5 442 Z " /><path fill="rgb(58,153,212)" stroke="rgb(58,153,212)" stroke-width="1" opacity="0.9607843137254902" d="M 501 442 L 515 442 L 515 447 Q 503.3 442.833 506 452 L 515 452 L 515 455.5 Q 512.906 459 506 457 L 506 462 L 516 462 L 516 466 L 501 466 L 501 442 Z " /><path fill="rgb(58,153,212)" stroke="rgb(58,153,212)" stroke-width="1" opacity="0.9607843137254902" d="M 524.5 442 Q 531.792 441.708 535 445.5 L 536 451.5 L 532.5 456 Q 534.75 455.25 534 457.5 L 537 465.5 L 531 466 L 527.5 457 Q 522.188 456.174 525 466 L 519 466 L 519 443.5 Q 519 442.5 523.5 443 L 524.5 442 Z M 525 447 Q 522 455 529 453 Q 531 452 530 449 Q 529 446 525 447 Z " /><path fill="rgb(0,0,0)" stroke="rgb(0,0,0)" stroke-width="1" opacity="0" d="M 0 0 L 721 0.5 Q 706.013 3.513 698 13.5 Q 691.281 20.281 693 35.5 Q 698.11 53.39 711.5 63 Q 726.525 74.975 755.5 73 Q 769.299 71.299 776 62.5 Q 782.292 54.792 781 39.5 Q 777.899 22.101 766.5 13 Q 757 3 740 0.5 L 1000 0 L 999.5 399 L 991.5 395 L 915.5 371 Q 870.006 349.494 818.5 334 Q 792.924 323.076 776 303.5 Q 748.878 274.122 753 213.5 Q 757.681 173.681 775 146.5 Q 787.5 124.5 806 108.5 L 812 97 Q 759.696 100.035 725.5 84 Q 678.926 62.574 647.5 26 L 648 27.5 Q 680.366 92.134 678 191.5 Q 673.435 245.935 657 288.5 Q 635.055 347.055 602.5 395 Q 579.581 373.419 565 343.5 Q 558.333 330.167 560 308.5 Q 572.518 256.518 608.5 228 Q 635.375 204.375 666 184.5 L 667 182.5 L 667 138.5 Q 668.043 127.957 662.5 124 Q 593.368 134.868 556 177.5 Q 511.249 223.249 509 311.5 Q 510.483 340.517 519 362.5 Q 529.277 388.223 544 409.5 L 540.5 415 L 534.5 417 Q 518.667 410.833 495.5 412 Q 487.553 412.553 484.5 418 Q 477.357 410.143 459.5 413 Q 456.705 416.75 448 414 L 447.5 421 Q 417.017 403.983 372.5 401 Q 362.288 401.788 358 408.5 L 357 414 L 316.5 406 L 298.5 406 Q 291.35 406.85 289 412.5 L 284 422 Q 249.306 424.25 219.5 421 Q 202.81 420.19 195.5 410 L 186.5 409 Q 181 415.5 169.5 416 Q 166.188 413.719 167 408 L 153.5 407 Q 132.121 412.621 105.5 413 Q 76.977 405.023 38.5 407 Q 35.75 410.75 26.5 408 Q 10.893 407.873 0 404 L 0 0 Z M 838 143 Q 817 144 806 153 Q 794 160 792 177 Q 792 186 796 192 Q 804 204 824 205 Q 851 206 865 192 Q 872 185 874 174 Q 874 162 869 157 Q 859 144 838 143 Z M 91 164 L 90 165 L 24 165 L 20 166 Q 14 169 14 178 Q 14 281 4 374 L 6 383 L 12 386 L 124 386 L 125 385 L 150 384 Q 182 380 203 363 Q 237 337 245 286 Q 248 225 222 195 Q 205 174 176 167 Q 138 160 91 164 Z M 296 165 L 293 166 Q 287 169 286 178 Q 285 276 274 365 Q 272 376 276 382 L 284 386 L 444 386 L 457 383 Q 468 368 465 338 Q 462 334 457 333 Q 413 337 364 335 L 363 336 L 355 335 L 350 330 Q 349 313 353 302 L 357 299 L 436 298 L 446 295 Q 452 289 452 276 Q 454 262 451 254 L 445 249 L 363 249 L 356 245 Q 354 230 357 221 L 365 215 L 465 215 L 468 214 Q 474 210 473 199 L 473 173 L 472 171 Q 469 166 464 165 L 296 165 Z M 947 175 L 942 176 Q 912 194 878 207 Q 851 218 818 222 L 804 222 Q 788 221 776 216 L 765 216 L 762 220 Q 760 272 782 301 Q 792 312 807 318 L 877 346 Q 882 347 884 344 Q 885 331 882 322 Q 882 285 895 261 Q 918 213 951 176 L 947 175 Z " /><path fill="rgb(0,0,0)" stroke="rgb(0,0,0)" stroke-width="1" opacity="0" d="M 107.5 211 Q 140.415 209.085 156 224.5 Q 174.245 242.255 170 282.5 Q 166.428 306.928 151.5 320 Q 139.129 330.629 121.5 336 Q 112.8 338.8 99.5 337 L 98.5 336 Q 87.231 336.615 80 334 L 79 331.5 L 79 294.5 Q 82.837 264.837 82 230.5 Q 81.505 219.505 87.5 215 Q 95.15 210.65 107.5 211 Z " /><path fill="rgb(0,0,0)" stroke="rgb(0,0,0)" stroke-width="1" opacity="0" d="M 829.5 388 Q 864.2 386.3 894.5 389 L 895.5 390 L 903.5 390 L 904.5 391 L 911.5 391 L 919.5 393 L 926.5 393 L 927.5 394 L 934.5 394 L 935.5 395 Q 957.075 395.925 975.5 400 L 996.5 401 L 1000 400 L 1000 480.5 L 999.5 481 L 715.5 481 L 715.5 480 Q 781.746 474.246 832.5 453 Q 873.94 437.44 900 406.5 Q 901.25 398.25 895.5 397 Q 885.5 396 879.5 399 Q 850.841 418.841 815.5 432 Q 778.367 444.367 729.5 445 Q 681.113 443.106 648 427 Q 646.875 424.333 649.5 425 Q 724.564 391.564 829.5 388 Z " /><path fill="rgb(0,0,0)" stroke="rgb(0,0,0)" stroke-width="1" opacity="0" d="M 371.5 405 Q 420.248 407.886 452 427 Q 447.417 415.3 457.5 418 L 458.5 417 L 474.5 417 L 482 422.5 L 483.5 425 L 487 424 L 488 419 Q 495.458 414.25 510.5 416 L 547.5 424 L 557.5 424 Q 560.591 428.909 569.5 428 L 576 433.5 Q 562.075 455.575 545 474.5 L 545 476.5 Q 546.5 479.5 552.5 478 Q 571.733 459.733 598.5 449 Q 634.739 476.761 695 480.5 L 0 481 L 0 408.5 L 1.5 408 L 13.5 411 L 68.5 411 Q 89.687 416.313 115.5 417 L 116.5 416 Q 136.033 416.533 150.5 412 L 151.5 411 L 160.5 411 L 164 412 Q 163.167 416.958 166.5 419 L 171.5 420 Q 182.201 419.201 187.5 413 L 191.5 413 Q 200.652 423.848 219.5 425 Q 249.923 428.077 285.5 426 L 296.5 411 Q 303 407 316.5 410 Q 336.944 415.99 360 418 Q 359.563 409.844 365.5 407 L 371.5 405 Z M 9 442 L 9 467 Q 20 469 27 464 L 30 458 L 29 448 Q 24 440 9 442 Z M 33 442 L 33 467 L 48 467 Q 51 457 39 461 Q 37 453 47 457 Q 50 447 39 451 Q 37 444 48 448 L 48 442 L 33 442 Z M 49 442 L 56 465 Q 55 471 64 467 Q 65 454 71 445 Q 72 440 66 442 Q 61 448 61 457 L 56 445 Q 57 439 49 442 Z M 73 442 L 73 467 L 89 467 Q 90 467 89 463 Q 87 459 79 461 Q 77 453 88 457 L 88 453 Q 86 449 79 451 Q 77 444 88 448 L 88 442 L 73 442 Z M 91 442 L 91 467 L 107 467 Q 110 457 98 461 L 98 442 L 91 442 Z M 116 442 L 114 443 L 108 451 Q 107 459 110 463 L 116 467 Q 123 468 127 465 L 131 458 Q 132 450 129 447 Q 126 440 116 442 Z M 134 442 L 132 444 L 132 467 Q 142 470 138 458 L 147 457 L 150 452 L 149 446 Q 145 440 134 442 Z M 153 442 Q 156 451 152 454 L 152 467 L 158 467 L 159 453 L 162 465 Q 161 468 167 466 Q 171 461 171 452 L 172 452 L 172 467 L 178 467 L 178 453 L 177 452 Q 181 438 169 442 L 166 452 Q 167 456 164 455 Q 164 448 161 444 Q 161 440 153 442 Z M 181 442 L 181 467 L 197 467 Q 200 456 187 461 Q 185 453 196 457 L 196 453 Q 194 449 187 451 Q 185 444 196 448 L 196 442 L 181 442 Z M 199 442 L 199 467 Q 199 468 205 467 L 206 453 L 212 466 Q 214 469 219 467 L 219 443 L 214 442 L 214 456 L 207 444 Q 205 440 199 442 Z M 221 442 Q 218 451 227 449 L 227 467 L 234 467 L 234 449 Q 234 447 240 448 Q 241 442 240 442 L 221 442 Z M 249 442 L 249 467 L 264 467 Q 267 457 255 461 Q 253 453 263 457 Q 266 447 255 451 Q 253 444 264 448 L 264 442 L 249 442 Z M 266 442 L 272 455 L 265 466 Q 264 469 272 467 L 276 459 L 279 466 Q 279 469 286 467 L 280 456 Q 279 446 286 444 Q 287 440 280 442 L 276 449 L 273 445 Q 274 440 266 442 Z M 288 442 L 288 467 Q 298 470 294 458 Q 301 459 304 456 L 306 451 L 304 444 Q 299 440 288 442 Z M 308 442 L 308 467 L 324 467 Q 327 456 314 461 Q 312 453 323 457 Q 326 447 314 451 Q 312 444 323 448 L 323 442 L 308 442 Z M 328 442 L 326 444 L 326 467 L 332 467 Q 328 456 336 458 L 338 464 Q 336 470 345 467 L 341 456 Q 340 453 343 454 L 344 452 L 343 446 Q 339 440 328 442 Z M 345 442 Q 342 451 351 449 L 351 467 Q 357 468 357 467 L 357 448 L 364 448 Q 365 442 364 442 L 345 442 Z M 366 442 L 366 467 Q 366 468 372 467 L 372 443 Q 372 441 366 442 Z M 381 442 L 379 443 Q 374 445 375 453 Q 378 457 384 458 L 385 461 L 382 462 L 375 460 L 374 466 L 378 467 Q 388 469 391 463 Q 392 456 390 454 L 383 451 L 381 448 L 384 447 L 389 448 Q 391 447 390 444 Q 388 440 381 442 Z M 394 442 L 394 467 L 410 467 Q 413 456 400 461 Q 398 453 409 457 Q 412 447 400 451 Q 398 444 409 448 L 409 442 L 394 442 Z M 428 442 L 421 445 L 418 452 Q 417 459 420 463 L 427 467 Q 435 469 437 466 Q 438 462 436 461 L 432 462 L 426 460 L 425 458 Q 424 451 426 449 L 431 447 L 436 448 Q 438 447 437 444 Q 435 440 428 442 Z M 440 442 L 440 467 L 455 467 Q 458 457 446 461 Q 444 453 454 457 Q 457 447 446 451 Q 444 444 455 448 L 455 442 L 440 442 Z M 458 442 L 458 467 Q 458 468 464 467 L 465 453 L 471 466 Q 471 469 478 467 L 478 443 Q 478 441 472 442 L 472 455 L 466 444 Q 464 440 458 442 Z M 480 442 Q 477 451 486 449 L 486 467 Q 492 468 492 467 L 492 448 L 499 448 Q 500 442 499 442 L 480 442 Z M 500 442 L 500 467 L 516 467 Q 519 457 507 461 Q 505 453 515 457 Q 518 447 507 451 Q 505 444 516 448 L 516 442 L 500 442 Z M 519 442 L 519 467 L 525 467 Q 522 457 528 458 L 531 466 Q 531 469 537 467 L 535 458 Q 531 455 536 453 Q 537 446 535 444 Q 530 440 519 442 Z " /><path fill="rgb(0,0,0)" stroke="rgb(0,0,0)" stroke-width="1" opacity="0" d="M 15 447 Q 20.875 446.125 23 450.5 Q 23.875 457.313 22 460 L 15 462 L 15 447 Z " /><path fill="rgb(0,0,0)" stroke="rgb(0,0,0)" stroke-width="1" opacity="0" d="M 118.5 447 Q 123.5 446.5 124 450.5 L 125 454.5 Q 124.55 460.05 120.5 462 Q 115.5 462.5 115 458.5 L 114 454.5 Q 114.45 448.95 118.5 447 Z " /><path fill="rgb(0,0,0)" stroke="rgb(0,0,0)" stroke-width="1" opacity="0" d="M 138 447 Q 142.688 446 144 449.5 L 141.5 453 Q 134.938 454.714 138 447 Z " /><path fill="rgb(0,0,0)" stroke="rgb(0,0,0)" stroke-width="1" opacity="0" d="M 294 447 Q 297.812 446 299 448.5 Q 299.75 452.25 297.5 453 Q 290.938 454.714 294 447 Z " /><path fill="rgb(0,0,0)" stroke="rgb(0,0,0)" stroke-width="1" opacity="0" d="M 332 447 Q 336.688 446 338 449.5 L 337 452 L 332 453 L 332 447 Z " /><path fill="rgb(0,0,0)" stroke="rgb(0,0,0)" stroke-width="1" opacity="0" d="M 525 447 Q 528.813 446 530 448.5 L 528.5 452 L 525 453 L 525 447 Z " /><path fill="rgb(140,198,82)" stroke="rgb(140,198,82)" stroke-width="1" opacity="0.9764705882352941" d="M 721.5 0 Q 755.15 -2.15 769 15.5 L 771 18.5 Q 782.099 27.901 781 49.5 Q 778.837 60.837 771.5 67 Q 760.682 75.182 739.5 73 Q 714.003 69.997 702 53.5 Q 691.167 45.333 693 24.5 Q 695.356 14.356 702.5 9 Q 709.953 2.453 721.5 0 Z " /><path fill="rgb(140,198,82)" stroke="rgb(140,198,82)" stroke-width="1" opacity="0.9764705882352941" d="M 647.5 26 Q 679.044 62.456 725.5 84 Q 759.508 100.298 812 97 Q 804.898 113.612 792 125 Q 789.333 123.875 790 126.5 Q 750.234 165.234 753 246.5 Q 758.676 292.324 787.5 315 Q 802.786 328.214 823.5 336 Q 871.223 349.777 912.5 370 L 988.5 394 L 1000 399.5 Q 996.55 402.05 989.5 401 Q 940.335 396.665 894.5 389 Q 864.2 386.3 829.5 388 Q 722.047 391.547 645.5 426 Q 621.101 414.399 603 396.5 Q 639.553 340.053 663 270.5 Q 680.867 219.367 678 147.5 Q 671.599 77.012 647.5 26 Z " /><path fill="rgb(140,198,82)" stroke="rgb(140,198,82)" stroke-width="1" opacity="0.9764705882352941" d="M 576 433 L 598 448.5 Q 571.891 459.891 552.5 478 L 546.5 478 L 545 474.5 Q 562.77 455.318 576 433 Z " /></svg>